<svg xmlns="http://www.w3.org/2000/svg" xmlns:v="https://svgstorm.com"
viewBox = "0 0 1024 1024"
width="1024"
height="1024">
<g fill="None" fill-opacity="0.0" stroke="#000002" stroke-opacity="0.00" stroke-width="0.3"><path d="
M 0.00 1024.00 
L 1024.00 1024.00
L 1024.00 0.00
L 0.00 0.00
L 0.00 1024.00
M 295.00 109.00 
C 314.77 114.43 324.96 144.20 309.25 159.25 C 296.31 174.91 263.83 170.58 258.67 149.33 C 249.05 127.07 271.52 103.51 295.00 109.00
M 431.00 109.00 
C 451.56 113.02 460.80 142.43 446.70 158.70 C 432.13 174.72 402.26 170.98 395.03 149.97 C 385.98 127.83 406.70 103.30 431.00 109.00
M 244.00 155.00 
C 217.16 157.27 195.48 174.92 186.08 199.08 C 183.33 265.56 186.07 333.85 185.00 400.00 C 179.62 419.20 204.28 413.55 208.92 427.08 C 220.45 454.69 207.17 489.78 221.97 516.03 C 249.16 583.60 333.67 595.67 402.00 585.00 C 451.32 572.79 499.48 531.53 495.00 474.00 C 496.10 458.77 491.49 441.36 500.75 428.75 C 504.84 415.34 528.36 418.64 525.00 402.00 C 525.00 351.00 525.00 300.00 525.00 249.00 C 526.36 219.95 527.20 186.18 501.92 170.08 C 492.20 160.97 479.63 157.03 466.00 155.00
C 464.29 146.53 468.73 134.42 464.10 126.90 C 467.40 116.93 481.19 125.39 489.00 125.00 C 527.85 136.59 559.42 174.57 558.00 218.00 C 558.00 229.00 558.00 240.00 558.00 251.00
C 578.73 252.38 566.93 221.83 570.00 208.00 C 568.25 178.84 552.35 150.49 529.00 134.00
C 527.40 118.69 548.12 127.40 557.00 127.00 C 621.83 124.36 687.52 125.05 753.00 125.00 C 786.55 120.18 825.60 134.32 824.93 172.07 C 827.41 263.88 825.30 356.77 826.00 449.00 C 832.56 483.15 814.40 520.38 777.00 519.00 C 711.45 519.45 646.86 518.88 581.00 519.00 C 562.92 523.56 569.64 505.78 566.00 496.00
C 563.33 496.67 561.23 498.94 558.00 498.00
C 551.96 584.86 470.69 649.55 385.00 651.00
C 384.22 661.14 386.62 672.14 383.69 681.69 C 365.16 684.98 342.84 685.53 324.00 682.00
C 321.83 672.46 328.64 655.94 319.99 651.01 C 227.06 646.85 142.97 569.71 150.00 471.00 C 150.37 392.59 150.53 313.07 151.00 233.00 C 145.24 184.47 175.19 139.02 219.22 126.22 C 227.00 124.67 241.32 117.83 245.97 126.03 C 240.82 135.18 247.23 146.36 244.00 155.00
M 336.00 327.00 
C 348.71 337.83 363.69 343.45 376.75 353.25 C 389.27 362.55 413.31 365.54 412.00 386.00 C 407.09 408.81 380.00 395.90 368.97 387.03 C 354.52 377.95 340.73 370.74 326.26 361.74 C 314.78 351.44 289.04 348.95 294.00 328.00 C 290.01 306.12 314.98 303.87 326.70 293.70 C 340.98 285.00 355.12 278.19 369.25 268.25 C 381.37 260.11 404.56 245.73 410.99 268.01 C 416.09 289.15 390.49 290.99 378.92 301.92 C 364.29 309.95 350.32 318.26 336.00 327.00
M 506.00 255.00 
C 528.07 268.73 506.82 293.50 503.08 311.08 C 495.58 330.04 489.59 350.56 482.08 369.08 C 473.92 385.56 474.24 418.88 448.78 414.22 C 425.79 402.84 447.93 375.55 450.99 358.99 C 458.45 339.09 464.70 321.23 472.26 301.26 C 481.65 284.82 478.72 251.41 506.00 255.00
M 707.00 700.00 
C 704.16 638.08 778.07 593.36 830.68 624.32 C 883.28 649.40 889.30 734.30 839.75 766.75 C 801.00 795.05 741.70 781.57 719.23 741.77 C 716.01 726.00 698.34 732.05 686.00 731.00 C 651.05 735.05 602.16 722.63 584.74 759.74 C 576.68 783.81 583.69 813.64 573.10 836.10 C 560.26 894.84 492.71 925.10 433.98 913.02 C 375.34 906.57 332.88 850.07 337.00 790.00 C 337.00 760.67 337.00 731.33 337.00 702.00 C 339.26 690.76 363.32 692.82 369.77 699.23 C 374.49 759.19 352.18 843.30 414.10 872.90 C 455.47 891.19 517.65 883.77 537.92 838.92 C 554.88 806.78 537.94 760.88 563.25 732.25 C 584.79 702.03 624.35 696.71 663.00 700.00 C 677.67 700.00 692.33 700.00 707.00 700.00 Z"/>
</g>
<g fill="None" fill-opacity="0.0" stroke="#B4C3C9" stroke-opacity="0.15" stroke-width="0.3"><path d="
M 295.00 109.00 
C 271.52 103.51 249.05 127.07 258.67 149.33 C 263.83 170.58 296.31 174.91 309.25 159.25 C 324.96 144.20 314.77 114.43 295.00 109.00
M 294.00 111.00 
C 325.68 120.29 314.86 173.73 280.00 165.00 C 246.19 158.27 259.67 102.05 294.00 111.00 Z"/>
</g>
<g fill="None" fill-opacity="0.0" stroke="#B4C3C9" stroke-opacity="0.10" stroke-width="0.3"><path d="
M 431.00 109.00 
C 406.70 103.30 385.98 127.83 395.03 149.97 C 402.26 170.98 432.13 174.72 446.70 158.70 C 460.80 142.43 451.56 113.02 431.00 109.00
M 429.00 112.00 
C 448.69 115.75 457.72 143.00 444.25 158.25 C 431.03 172.73 404.22 168.69 397.08 149.92 C 387.63 129.84 407.55 107.26 429.00 112.00 Z"/>
</g>
<g fill="None" fill-opacity="0.0" stroke="#B4C3C9" stroke-opacity="0.96" stroke-width="0.3"><path d="
M 294.00 111.00 
C 259.67 102.05 246.19 158.27 280.00 165.00 C 314.86 173.73 325.68 120.29 294.00 111.00 Z"/>
</g>
<g fill="None" fill-opacity="0.0" stroke="#B4C3C9" stroke-opacity="0.93" stroke-width="0.3"><path d="
M 429.00 112.00 
C 407.55 107.26 387.63 129.84 397.08 149.92 C 404.22 168.69 431.03 172.73 444.25 158.25 C 457.72 143.00 448.69 115.75 429.00 112.00 Z"/>
</g>
<g fill="None" fill-opacity="0.0" stroke="#B4C3C9" stroke-opacity="0.16" stroke-width="0.3"><path d="
M 244.00 155.00 
C 247.23 146.36 240.82 135.18 245.97 126.03 C 241.32 117.83 227.00 124.67 219.22 126.22 C 175.19 139.02 145.24 184.47 151.00 233.00 C 150.53 313.07 150.37 392.59 150.00 471.00 C 142.97 569.71 227.06 646.85 319.99 651.01 C 328.64 655.94 321.83 672.46 324.00 682.00
C 342.84 685.53 365.16 684.98 383.69 681.69 C 386.62 672.14 384.22 661.14 385.00 651.00
C 470.69 649.55 551.96 584.86 558.00 498.00
C 561.23 498.94 563.33 496.67 566.00 496.00
C 569.64 505.78 562.92 523.56 581.00 519.00 C 646.86 518.88 711.45 519.45 777.00 519.00 C 814.40 520.38 832.56 483.15 826.00 449.00 C 825.30 356.77 827.41 263.88 824.93 172.07 C 825.60 134.32 786.55 120.18 753.00 125.00 C 687.52 125.05 621.83 124.36 557.00 127.00 C 548.12 127.40 527.40 118.69 529.00 134.00
C 552.35 150.49 568.25 178.84 570.00 208.00 C 566.93 221.83 578.73 252.38 558.00 251.00
C 558.00 240.00 558.00 229.00 558.00 218.00 C 559.42 174.57 527.85 136.59 489.00 125.00 C 481.19 125.39 467.40 116.93 464.10 126.90 C 468.73 134.42 464.29 146.53 466.00 155.00
C 479.63 157.03 492.20 160.97 501.92 170.08 C 527.20 186.18 526.36 219.95 525.00 249.00 C 525.00 300.00 525.00 351.00 525.00 402.00 C 528.36 418.64 504.84 415.34 500.75 428.75 C 491.49 441.36 496.10 458.77 495.00 474.00 C 499.48 531.53 451.32 572.79 402.00 585.00 C 333.67 595.67 249.16 583.60 221.97 516.03 C 207.17 489.78 220.45 454.69 208.92 427.08 C 204.28 413.55 179.62 419.20 185.00 400.00 C 186.07 333.85 183.33 265.56 186.08 199.08 C 195.48 174.92 217.16 157.27 244.00 155.00
M 557.00 255.00 
C 562.69 256.22 573.47 253.32 572.00 245.00
C 572.00 230.33 572.00 215.67 572.00 201.00
C 570.37 175.00 555.18 151.36 536.00 134.00
C 534.74 124.38 553.80 130.91 561.00 129.00 C 635.25 129.66 710.17 127.68 784.01 129.99 C 791.78 131.93 800.66 133.43 806.00 140.00
C 833.48 163.20 817.85 206.95 822.00 240.00 C 822.00 317.33 822.00 394.67 822.00 472.00 C 823.65 510.24 780.58 519.88 749.00 515.00 C 691.00 515.00 633.00 515.00 575.00 515.00 C 565.66 500.64 580.64 479.83 570.00 465.00
C 566.09 468.63 563.81 462.31 560.00 463.00
C 560.70 466.27 556.76 467.81 557.00 471.00
C 562.60 561.55 483.10 643.77 396.00 647.00
C 389.16 646.71 379.31 648.58 382.00 658.00 C 380.77 665.39 384.62 674.72 379.75 680.75 C 363.01 681.11 345.98 681.28 329.33 680.67 C 324.29 674.89 328.27 665.31 327.00 658.00 C 331.04 645.52 315.67 651.43 312.00 647.00
C 239.98 640.47 166.17 587.43 157.67 511.33 C 149.37 502.16 155.85 488.05 154.00 476.00 C 154.01 462.74 153.13 449.30 157.00 437.00
C 157.59 434.09 155.41 431.94 156.00 429.00
C 155.00 426.21 154.82 423.11 155.00 420.00
C 152.67 356.83 154.66 292.58 154.00 229.00 C 146.90 178.18 189.21 126.04 241.00 126.00
C 239.31 136.13 246.67 153.64 231.78 153.78 C 212.44 156.34 199.22 171.83 187.00 185.00
C 186.78 195.05 178.90 205.36 181.00 217.00 C 181.66 283.14 179.67 350.87 182.00 416.00
C 222.14 419.21 207.70 468.20 212.00 496.00 C 230.46 591.04 356.28 611.39 433.69 576.70 C 457.31 565.78 478.14 545.93 489.92 521.92 C 506.04 493.76 488.54 454.34 506.00 427.00
C 510.85 420.11 520.34 419.01 528.00 416.00
C 528.00 380.33 528.00 344.67 528.00 309.00 C 526.83 273.76 530.35 237.12 526.23 202.77 C 521.55 176.39 495.56 154.71 468.00 153.00
C 470.66 142.60 460.11 120.25 478.00 126.00 C 519.91 133.09 555.49 173.35 553.98 216.02 C 556.25 228.65 552.67 243.17 557.00 255.00 Z"/>
</g>
<g fill="None" fill-opacity="0.0" stroke="#B4C3C9" stroke-opacity="0.97" stroke-width="0.3"><path d="
M 528.00 416.00 
C 534.26 421.18 546.31 413.05 554.07 418.93 C 558.56 399.09 554.72 375.34 556.00 354.00 C 556.67 321.16 554.67 287.01 557.00 255.00
C 552.67 243.17 556.25 228.65 553.98 216.02 C 555.49 173.35 519.91 133.09 478.00 126.00 C 460.11 120.25 470.66 142.60 468.00 153.00
C 495.56 154.71 521.55 176.39 526.23 202.77 C 530.35 237.12 526.83 273.76 528.00 309.00 C 528.00 344.67 528.00 380.33 528.00 416.00 Z"/>
</g>
<g fill="None" fill-opacity="0.0" stroke="#B4C3C9" stroke-opacity="0.97" stroke-width="0.3"><path d="
M 155.00 420.00 
C 162.18 415.65 172.26 416.25 180.00 419.00
C 180.95 418.13 180.54 416.32 182.00 416.00
C 179.67 350.87 181.66 283.14 181.00 217.00 C 178.90 205.36 186.78 195.05 187.00 185.00
C 199.22 171.83 212.44 156.34 231.78 153.78 C 246.67 153.64 239.31 136.13 241.00 126.00
C 189.21 126.04 146.90 178.18 154.00 229.00 C 154.66 292.58 152.67 356.83 155.00 420.00 Z"/>
</g>
<g fill="None" fill-opacity="0.0" stroke="#464E5A" stroke-opacity="0.73" stroke-width="0.3"><path d="
M 536.00 134.00 
C 538.91 136.08 537.15 132.50 537.00 131.00
C 599.00 131.00 661.00 131.00 723.00 131.00 C 750.65 132.75 783.87 125.41 806.00 140.00
C 800.66 133.43 791.78 131.93 784.01 129.99 C 710.17 127.68 635.25 129.66 561.00 129.00 C 553.80 130.91 534.74 124.38 536.00 134.00 Z"/>
</g>
<g fill="None" fill-opacity="0.0" stroke="#464E5A" stroke-opacity="1.00" stroke-width="0.3"><path d="
M 536.00 134.00 
C 555.18 151.36 570.37 175.00 572.00 201.00
C 575.10 214.06 575.47 232.12 572.00 245.00
C 573.47 253.32 562.69 256.22 557.00 255.00
C 554.67 287.01 556.67 321.16 556.00 354.00 C 554.72 375.34 558.56 399.09 554.07 418.93 C 546.31 413.05 534.26 421.18 528.00 416.00
C 520.34 419.01 510.85 420.11 506.00 427.00
C 506.20 429.34 503.07 430.38 504.00 433.00
C 509.47 424.70 521.42 417.89 529.08 420.92 C 539.57 418.49 553.24 417.50 560.00 424.00
C 553.11 426.33 546.37 426.47 538.00 426.00
C 543.01 428.04 549.85 426.17 555.00 429.00
C 555.19 423.85 565.04 423.07 564.00 429.00
C 558.41 426.47 556.73 431.95 552.00 432.00
C 555.39 434.57 556.02 443.22 561.00 441.00
C 560.03 446.91 560.48 453.20 559.00 459.00
C 556.01 453.43 560.67 444.72 555.23 439.77 C 552.68 433.22 544.25 435.25 540.00 432.00
C 525.51 438.84 529.14 455.24 529.00 469.00 C 531.57 520.88 506.48 569.85 463.75 595.75 C 397.53 633.50 297.40 630.20 237.75 590.25 C 231.28 582.51 216.54 577.57 215.00 567.00
C 211.23 567.27 205.03 560.32 209.00 558.00
C 202.54 558.75 199.90 548.78 196.68 543.32 C 183.86 521.25 180.78 495.35 181.00 469.00 C 182.20 459.94 178.52 448.35 183.00 441.00
C 178.76 442.41 175.23 437.83 173.00 434.00
C 168.67 434.00 164.33 434.00 160.00 434.00
C 162.13 431.65 166.51 434.25 169.00 432.00
C 166.24 429.84 161.51 431.55 158.00 431.00
C 156.66 433.17 157.66 428.78 156.00 429.00
C 155.41 431.94 157.59 434.09 157.00 437.00
C 178.05 427.95 182.04 453.15 179.00 469.00 C 174.70 529.97 212.97 589.82 270.69 609.31 C 355.40 639.22 477.23 626.70 518.77 535.77 C 524.25 520.66 529.02 505.37 530.00 489.00 C 532.81 472.11 523.60 450.55 536.25 437.25 C 558.38 427.75 556.48 457.64 557.00 471.00
C 556.76 467.81 560.70 466.27 560.00 463.00
C 563.81 462.31 566.09 468.63 570.00 465.00
C 580.64 479.83 565.66 500.64 575.00 515.00 C 633.00 515.00 691.00 515.00 749.00 515.00 C 780.58 519.88 823.65 510.24 822.00 472.00 C 822.00 394.67 822.00 317.33 822.00 240.00 C 817.85 206.95 833.48 163.20 806.00 140.00
C 783.87 125.41 750.65 132.75 723.00 131.00 C 661.00 131.00 599.00 131.00 537.00 131.00
C 537.15 132.50 538.91 136.08 536.00 134.00
M 760.00 187.00 
C 775.47 188.31 774.92 215.14 758.00 213.00 C 740.49 214.18 743.29 184.68 760.00 187.00
M 717.00 188.00 
C 731.61 195.23 722.60 218.56 706.33 212.67 C 690.48 206.08 700.60 182.03 717.00 188.00
M 682.00 327.00 
C 658.67 313.71 635.83 299.63 612.92 286.08 C 595.58 282.07 603.30 253.37 620.02 258.98 C 643.91 270.96 666.37 286.08 689.70 299.30 C 700.45 307.44 721.38 310.57 716.00 329.00 C 721.96 345.91 700.29 348.34 690.31 356.30 C 666.56 369.18 644.03 385.45 619.33 396.33 C 601.90 401.95 596.61 373.32 613.23 369.23 C 635.82 355.05 661.61 342.99 682.00 327.00
M 566.00 429.00 
C 570.92 432.59 563.54 435.40 564.00 440.00
C 560.33 435.56 564.52 433.09 566.00 429.00
M 561.00 430.00 
C 560.25 432.79 558.79 435.51 559.00 438.00
C 555.71 434.68 557.66 431.75 561.00 430.00
M 570.00 435.00 
C 570.57 439.36 574.06 444.92 571.00 449.00
C 568.48 445.18 568.04 438.77 570.00 435.00
M 566.00 445.00 
C 566.20 447.09 568.44 450.45 566.00 452.00
C 562.66 450.96 564.53 446.53 566.00 445.00 Z"/>
</g>
<g fill="None" fill-opacity="0.0" stroke="#B4C3C9" stroke-opacity="1.00" stroke-width="0.3"><path d="
M 760.00 187.00 
C 743.29 184.68 740.49 214.18 758.00 213.00 C 774.92 215.14 775.47 188.31 760.00 187.00 Z"/>
</g>
<g fill="None" fill-opacity="0.0" stroke="#B4C3C9" stroke-opacity="1.00" stroke-width="0.3"><path d="
M 717.00 188.00 
C 700.60 182.03 690.48 206.08 706.33 212.67 C 722.60 218.56 731.61 195.23 717.00 188.00 Z"/>
</g>
<g fill="None" fill-opacity="0.0" stroke="#B4C3C9" stroke-opacity="0.40" stroke-width="0.3"><path d="
M 572.00 245.00 
C 575.47 232.12 575.10 214.06 572.00 201.00
C 572.00 215.67 572.00 230.33 572.00 245.00 Z"/>
</g>
<g fill="None" fill-opacity="0.0" stroke="#B4C3C9" stroke-opacity="0.11" stroke-width="0.3"><path d="
M 336.00 327.00 
C 350.32 318.26 364.29 309.95 378.92 301.92 C 390.49 290.99 416.09 289.15 410.99 268.01 C 404.56 245.73 381.37 260.11 369.25 268.25 C 355.12 278.19 340.98 285.00 326.70 293.70 C 314.98 303.87 290.01 306.12 294.00 328.00 C 289.04 348.95 314.78 351.44 326.26 361.74 C 340.73 370.74 354.52 377.95 368.97 387.03 C 380.00 395.90 407.09 408.81 412.00 386.00 C 413.31 365.54 389.27 362.55 376.75 353.25 C 363.69 343.45 348.71 337.83 336.00 327.00
M 399.00 258.00 
C 411.21 262.26 412.59 280.74 399.77 285.77 C 381.29 298.76 360.66 310.84 340.75 320.75 C 322.55 326.59 342.16 336.50 350.70 340.30 C 367.99 355.33 392.54 358.92 408.92 376.08 C 415.15 389.20 399.90 403.85 387.78 395.22 C 358.32 377.81 329.39 359.05 299.92 342.08 C 294.24 332.36 294.24 313.14 307.25 308.25 C 326.91 296.38 346.99 285.74 366.25 273.25 C 377.26 268.52 386.36 258.30 399.00 258.00 Z"/>
</g>
<g fill="None" fill-opacity="0.0" stroke="#B4C3C9" stroke-opacity="0.14" stroke-width="0.3"><path d="
M 506.00 255.00 
C 478.72 251.41 481.65 284.82 472.26 301.26 C 464.70 321.23 458.45 339.09 450.99 358.99 C 447.93 375.55 425.79 402.84 448.78 414.22 C 474.24 418.88 473.92 385.56 482.08 369.08 C 489.59 350.56 495.58 330.04 503.08 311.08 C 506.82 293.50 528.07 268.73 506.00 255.00
M 505.00 258.00 
C 523.74 269.06 503.27 289.28 503.67 304.67 C 489.94 335.02 481.21 367.12 468.08 398.08 C 467.06 421.79 430.07 410.63 442.98 389.98 C 454.32 358.56 465.44 327.02 477.92 295.92 C 483.43 282.18 483.68 255.17 505.00 258.00 Z"/>
</g>
<g fill="None" fill-opacity="0.0" stroke="#B4C3C9" stroke-opacity="0.94" stroke-width="0.3"><path d="
M 399.00 258.00 
C 386.36 258.30 377.26 268.52 366.25 273.25 C 346.99 285.74 326.91 296.38 307.25 308.25 C 294.24 313.14 294.24 332.36 299.92 342.08 C 329.39 359.05 358.32 377.81 387.78 395.22 C 399.90 403.85 415.15 389.20 408.92 376.08 C 392.54 358.92 367.99 355.33 350.70 340.30 C 342.16 336.50 322.55 326.59 340.75 320.75 C 360.66 310.84 381.29 298.76 399.77 285.77 C 412.59 280.74 411.21 262.26 399.00 258.00 Z"/>
</g>
<g fill="None" fill-opacity="0.0" stroke="#B4C3C9" stroke-opacity="0.95" stroke-width="0.3"><path d="
M 505.00 258.00 
C 483.68 255.17 483.43 282.18 477.92 295.92 C 465.44 327.02 454.32 358.56 442.98 389.98 C 430.07 410.63 467.06 421.79 468.08 398.08 C 481.21 367.12 489.94 335.02 503.67 304.67 C 503.27 289.28 523.74 269.06 505.00 258.00 Z"/>
</g>
<g fill="None" fill-opacity="0.0" stroke="#B4C3C9" stroke-opacity="1.00" stroke-width="0.3"><path d="
M 682.00 327.00 
C 661.61 342.99 635.82 355.05 613.23 369.23 C 596.61 373.32 601.90 401.95 619.33 396.33 C 644.03 385.45 666.56 369.18 690.31 356.30 C 700.29 348.34 721.96 345.91 716.00 329.00 C 721.38 310.57 700.45 307.44 689.70 299.30 C 666.37 286.08 643.91 270.96 620.02 258.98 C 603.30 253.37 595.58 282.07 612.92 286.08 C 635.83 299.63 658.67 313.71 682.00 327.00 Z"/>
</g>
<g fill="None" fill-opacity="0.0" stroke="#464E5A" stroke-opacity="0.76" stroke-width="0.3"><path d="
M 155.00 420.00 
C 154.82 423.11 155.00 426.21 156.00 429.00
C 157.66 428.78 156.66 433.17 158.00 431.00
C 157.37 428.47 160.53 429.10 162.00 429.00
C 160.77 426.86 155.79 425.99 161.00 425.00
C 159.75 423.38 157.17 422.64 156.00 421.00
C 164.81 415.33 175.88 422.73 184.00 419.00
C 183.75 422.73 193.11 418.58 197.07 422.93 C 216.51 438.95 205.37 471.63 209.93 495.07 C 215.63 538.47 251.86 573.82 292.01 583.99 C 370.26 613.25 489.23 585.19 499.78 491.78 C 503.15 473.35 497.64 451.12 504.00 433.00
C 503.07 430.38 506.20 429.34 506.00 427.00
C 488.54 454.34 506.04 493.76 489.92 521.92 C 478.14 545.93 457.31 565.78 433.69 576.70 C 356.28 611.39 230.46 591.04 212.00 496.00 C 207.70 468.20 222.14 419.21 182.00 416.00
C 180.54 416.32 180.95 418.13 180.00 419.00
C 172.26 416.25 162.18 415.65 155.00 420.00 Z"/>
</g>
<g fill="None" fill-opacity="0.0" stroke="#000002" stroke-opacity="1.00" stroke-width="0.3"><path d="
M 158.00 431.00 
C 161.51 431.55 166.24 429.84 169.00 432.00
C 166.51 434.25 162.13 431.65 160.00 434.00
C 164.33 434.00 168.67 434.00 173.00 434.00
C 175.23 437.83 178.76 442.41 183.00 441.00
C 178.52 448.35 182.20 459.94 181.00 469.00 C 180.78 495.35 183.86 521.25 196.68 543.32 C 199.90 548.78 202.54 558.75 209.00 558.00
C 205.03 560.32 211.23 567.27 215.00 567.00
C 216.54 577.57 231.28 582.51 237.75 590.25 C 297.40 630.20 397.53 633.50 463.75 595.75 C 506.48 569.85 531.57 520.88 529.00 469.00 C 529.14 455.24 525.51 438.84 540.00 432.00
C 544.25 435.25 552.68 433.22 555.23 439.77 C 560.67 444.72 556.01 453.43 559.00 459.00
C 560.48 453.20 560.03 446.91 561.00 441.00
C 556.02 443.22 555.39 434.57 552.00 432.00
C 556.73 431.95 558.41 426.47 564.00 429.00
C 565.04 423.07 555.19 423.85 555.00 429.00
C 549.85 426.17 543.01 428.04 538.00 426.00
C 546.37 426.47 553.11 426.33 560.00 424.00
C 553.24 417.50 539.57 418.49 529.08 420.92 C 521.42 417.89 509.47 424.70 504.00 433.00
C 497.64 451.12 503.15 473.35 499.78 491.78 C 489.23 585.19 370.26 613.25 292.01 583.99 C 251.86 573.82 215.63 538.47 209.93 495.07 C 205.37 471.63 216.51 438.95 197.07 422.93 C 193.11 418.58 183.75 422.73 184.00 419.00
C 175.88 422.73 164.81 415.33 156.00 421.00
C 157.17 422.64 159.75 423.38 161.00 425.00
C 155.79 425.99 160.77 426.86 162.00 429.00
C 160.53 429.10 157.37 428.47 158.00 431.00
M 551.00 422.00 
C 545.22 426.29 545.83 416.83 551.00 422.00
M 550.00 431.00 
C 544.82 433.31 543.10 428.00 550.00 431.00
M 257.00 593.00 
C 254.54 591.56 251.23 591.34 249.00 590.00
C 251.51 587.96 256.56 590.12 257.00 593.00
M 280.00 606.00 
C 279.71 610.72 274.36 605.06 280.00 606.00 Z"/>
</g>
<g fill="None" fill-opacity="0.0" stroke="#464E5A" stroke-opacity="1.00" stroke-width="0.3"><path d="
M 551.00 422.00 
C 545.83 416.83 545.22 426.29 551.00 422.00 Z"/>
</g>
<g fill="None" fill-opacity="0.0" stroke="#000002" stroke-opacity="1.00" stroke-width="0.3"><path d="
M 566.00 429.00 
C 564.52 433.09 560.33 435.56 564.00 440.00
C 563.54 435.40 570.92 432.59 566.00 429.00 Z"/>
</g>
<g fill="None" fill-opacity="0.0" stroke="#464E5A" stroke-opacity="1.00" stroke-width="0.3"><path d="
M 550.00 431.00 
C 543.10 428.00 544.82 433.31 550.00 431.00 Z"/>
</g>
<g fill="None" fill-opacity="0.0" stroke="#000002" stroke-opacity="1.00" stroke-width="0.3"><path d="
M 561.00 430.00 
C 557.66 431.75 555.71 434.68 559.00 438.00
C 558.79 435.51 560.25 432.79 561.00 430.00 Z"/>
</g>
<g fill="None" fill-opacity="0.0" stroke="#B4C3C9" stroke-opacity="0.98" stroke-width="0.3"><path d="
M 157.00 437.00 
C 153.13 449.30 154.01 462.74 154.00 476.00 C 155.85 488.05 149.37 502.16 157.67 511.33 C 166.17 587.43 239.98 640.47 312.00 647.00
C 317.68 648.53 329.81 645.22 328.00 655.00 C 327.63 662.85 328.28 670.41 329.00 678.00
C 344.84 679.76 362.36 679.41 378.22 678.22 C 382.27 672.68 378.89 662.37 380.00 655.00 C 377.50 646.08 390.61 644.40 396.00 647.00
C 483.10 643.77 562.60 561.55 557.00 471.00
C 556.48 457.64 558.38 427.75 536.25 437.25 C 523.60 450.55 532.81 472.11 530.00 489.00 C 529.02 505.37 524.25 520.66 518.77 535.77 C 477.23 626.70 355.40 639.22 270.69 609.31 C 212.97 589.82 174.70 529.97 179.00 469.00 C 182.04 453.15 178.05 427.95 157.00 437.00 Z"/>
</g>
<g fill="None" fill-opacity="0.0" stroke="#000002" stroke-opacity="1.00" stroke-width="0.3"><path d="
M 570.00 435.00 
C 568.04 438.77 568.48 445.18 571.00 449.00
C 574.06 444.92 570.57 439.36 570.00 435.00 Z"/>
</g>
<g fill="None" fill-opacity="0.0" stroke="#000002" stroke-opacity="1.00" stroke-width="0.3"><path d="
M 566.00 445.00 
C 564.53 446.53 562.66 450.96 566.00 452.00
C 568.44 450.45 566.20 447.09 566.00 445.00 Z"/>
</g>
<g fill="None" fill-opacity="0.0" stroke="#464E5A" stroke-opacity="1.00" stroke-width="0.3"><path d="
M 257.00 593.00 
C 256.56 590.12 251.51 587.96 249.00 590.00
C 251.23 591.34 254.54 591.56 257.00 593.00 Z"/>
</g>
<g fill="None" fill-opacity="0.0" stroke="#464E5A" stroke-opacity="1.00" stroke-width="0.3"><path d="
M 280.00 606.00 
C 274.36 605.06 279.71 610.72 280.00 606.00 Z"/>
</g>
<g fill="None" fill-opacity="0.0" stroke="#B4C3C9" stroke-opacity="0.15" stroke-width="0.3"><path d="
M 707.00 700.00 
C 692.33 700.00 677.67 700.00 663.00 700.00 C 624.35 696.71 584.79 702.03 563.25 732.25 C 537.94 760.88 554.88 806.78 537.92 838.92 C 517.65 883.77 455.47 891.19 414.10 872.90 C 352.18 843.30 374.49 759.19 369.77 699.23 C 363.32 692.82 339.26 690.76 337.00 702.00 C 337.00 731.33 337.00 760.67 337.00 790.00 C 332.88 850.07 375.34 906.57 433.98 913.02 C 492.71 925.10 560.26 894.84 573.10 836.10 C 583.69 813.64 576.68 783.81 584.74 759.74 C 602.16 722.63 651.05 735.05 686.00 731.00 C 698.34 732.05 716.01 726.00 719.23 741.77 C 741.70 781.57 801.00 795.05 839.75 766.75 C 889.30 734.30 883.28 649.40 830.68 624.32 C 778.07 593.36 704.16 638.08 707.00 700.00
M 401.00 869.00 
C 413.54 874.04 429.29 882.95 444.00 885.00
C 475.94 886.38 513.50 881.96 532.92 852.92 C 545.08 836.42 550.68 814.15 550.00 791.00 C 545.30 746.22 581.60 703.80 626.00 702.00 C 653.33 702.00 680.67 702.00 708.00 702.00 C 711.79 691.86 709.28 678.27 714.98 667.98 C 735.79 616.96 807.83 600.59 846.25 640.75 C 888.82 678.42 872.76 752.40 821.92 773.92 C 790.26 782.10 752.43 780.04 730.25 752.75 C 723.97 745.67 717.43 735.24 714.00 729.00
C 685.34 729.52 656.05 727.96 627.78 729.78 C 586.54 728.27 569.37 773.10 576.00 809.00 C 573.40 867.99 518.95 916.12 460.00 912.00 C 402.76 915.06 345.41 872.42 342.00 813.00 C 337.58 785.28 341.15 755.54 340.00 727.00 C 340.46 714.56 334.89 692.46 355.00 698.00 C 373.85 694.28 365.07 717.94 367.00 729.00 C 369.01 778.70 356.39 836.92 401.00 869.00 Z"/>
</g>
<g fill="None" fill-opacity="0.0" stroke="#B4C3C9" stroke-opacity="0.96" stroke-width="0.3"><path d="
M 444.00 885.00 
C 427.50 885.91 413.13 878.79 401.00 869.00
C 356.39 836.92 369.01 778.70 367.00 729.00 C 365.07 717.94 373.85 694.28 355.00 698.00 C 334.89 692.46 340.46 714.56 340.00 727.00 C 341.15 755.54 337.58 785.28 342.00 813.00 C 345.41 872.42 402.76 915.06 460.00 912.00 C 518.95 916.12 573.40 867.99 576.00 809.00 C 569.37 773.10 586.54 728.27 627.78 729.78 C 656.05 727.96 685.34 729.52 714.00 729.00
C 717.43 735.24 723.97 745.67 730.25 752.75 C 752.43 780.04 790.26 782.10 821.92 773.92 C 872.76 752.40 888.82 678.42 846.25 640.75 C 807.83 600.59 735.79 616.96 714.98 667.98 C 709.28 678.27 711.79 691.86 708.00 702.00 C 680.67 702.00 653.33 702.00 626.00 702.00 C 581.60 703.80 545.30 746.22 550.00 791.00 C 550.68 814.15 545.08 836.42 532.92 852.92 C 513.50 881.96 475.94 886.38 444.00 885.00
M 800.00 644.00 
C 839.95 648.61 858.77 701.54 833.23 732.23 C 808.99 763.86 756.31 757.16 741.08 720.92 C 721.90 683.68 758.44 637.16 800.00 644.00 Z"/>
</g>
<g fill="None" fill-opacity="0.0" stroke="#B4C3C9" stroke-opacity="0.18" stroke-width="0.3"><path d="
M 800.00 644.00 
C 758.44 637.16 721.90 683.68 741.08 720.92 C 756.31 757.16 808.99 763.86 833.23 732.23 C 858.77 701.54 839.95 648.61 800.00 644.00
M 804.00 648.00 
C 838.87 656.01 855.03 705.16 829.70 731.70 C 807.99 760.50 756.36 751.63 744.03 717.97 C 727.94 679.20 763.04 638.99 804.00 648.00 Z"/>
</g>
<g fill="None" fill-opacity="0.0" stroke="#B4C3C9" stroke-opacity="0.70" stroke-width="0.3"><path d="
M 312.00 647.00 
C 315.67 651.43 331.04 645.52 327.00 658.00 C 328.27 665.31 324.29 674.89 329.33 680.67 C 345.98 681.28 363.01 681.11 379.75 680.75 C 384.62 674.72 380.77 665.39 382.00 658.00 C 379.31 648.58 389.16 646.71 396.00 647.00
C 390.61 644.40 377.50 646.08 380.00 655.00 C 378.89 662.37 382.27 672.68 378.22 678.22 C 362.36 679.41 344.84 679.76 329.00 678.00
C 328.28 670.41 327.63 662.85 328.00 655.00 C 329.81 645.22 317.68 648.53 312.00 647.00 Z"/>
</g>
<g fill="None" fill-opacity="0.0" stroke="#000002" stroke-opacity="0.00" stroke-width="0.3"><path d="
M 804.00 648.00 
C 763.04 638.99 727.94 679.20 744.03 717.97 C 756.36 751.63 807.99 760.50 829.70 731.70 C 855.03 705.16 838.87 656.01 804.00 648.00
M 794.00 662.00 
C 821.28 662.80 837.89 697.90 821.10 719.10 C 806.70 741.14 770.76 738.91 758.70 715.30 C 745.22 691.92 766.50 659.50 794.00 662.00 Z"/>
</g>
<g fill="None" fill-opacity="0.0" stroke="#B4C3C9" stroke-opacity="0.13" stroke-width="0.3"><path d="
M 794.00 662.00 
C 766.50 659.50 745.22 691.92 758.70 715.30 C 770.76 738.91 806.70 741.14 821.10 719.10 C 837.89 697.90 821.28 662.80 794.00 662.00
M 799.00 666.00 
C 822.74 669.26 834.04 703.41 816.25 720.25 C 801.01 739.44 768.75 732.77 760.08 710.92 C 747.84 687.45 773.72 659.52 799.00 666.00 Z"/>
</g>
<g fill="None" fill-opacity="0.0" stroke="#B4C3C9" stroke-opacity="0.96" stroke-width="0.3"><path d="
M 799.00 666.00 
C 773.72 659.52 747.84 687.45 760.08 710.92 C 768.75 732.77 801.01 739.44 816.25 720.25 C 834.04 703.41 822.74 669.26 799.00 666.00 Z"/>
</g>
<g fill="None" fill-opacity="0.0" stroke="#B4C3C9" stroke-opacity="0.56" stroke-width="0.3"><path d="
M 401.00 869.00 
C 413.13 878.79 427.50 885.91 444.00 885.00
C 429.29 882.95 413.54 874.04 401.00 869.00 Z"/>
</g>
<g fill="#000002" fill-opacity="0.00" stroke="None">
<path d="
M 0.00 1024.00 
L 1024.00 1024.00
L 1024.00 0.00
L 0.00 0.00
L 0.00 1024.00
M 295.00 109.00 
C 314.77 114.43 324.96 144.20 309.25 159.25 C 296.31 174.91 263.83 170.58 258.67 149.33 C 249.05 127.07 271.52 103.51 295.00 109.00
M 431.00 109.00 
C 451.56 113.02 460.80 142.43 446.70 158.70 C 432.13 174.72 402.26 170.98 395.03 149.97 C 385.98 127.83 406.70 103.30 431.00 109.00
M 244.00 155.00 
C 217.16 157.27 195.48 174.92 186.08 199.08 C 183.33 265.56 186.07 333.85 185.00 400.00 C 179.62 419.20 204.28 413.55 208.92 427.08 C 220.45 454.69 207.17 489.78 221.97 516.03 C 249.16 583.60 333.67 595.67 402.00 585.00 C 451.32 572.79 499.48 531.53 495.00 474.00 C 496.10 458.77 491.49 441.36 500.75 428.75 C 504.84 415.34 528.36 418.64 525.00 402.00 C 525.00 351.00 525.00 300.00 525.00 249.00 C 526.36 219.95 527.20 186.18 501.92 170.08 C 492.20 160.97 479.63 157.03 466.00 155.00
C 464.29 146.53 468.73 134.42 464.10 126.90 C 467.40 116.93 481.19 125.39 489.00 125.00 C 527.85 136.59 559.42 174.57 558.00 218.00 C 558.00 229.00 558.00 240.00 558.00 251.00
C 578.73 252.38 566.93 221.83 570.00 208.00 C 568.25 178.84 552.35 150.49 529.00 134.00
C 527.40 118.69 548.12 127.40 557.00 127.00 C 621.83 124.36 687.52 125.05 753.00 125.00 C 786.55 120.18 825.60 134.32 824.93 172.07 C 827.41 263.88 825.30 356.77 826.00 449.00 C 832.56 483.15 814.40 520.38 777.00 519.00 C 711.45 519.45 646.86 518.88 581.00 519.00 C 562.92 523.56 569.64 505.78 566.00 496.00
C 563.33 496.67 561.23 498.94 558.00 498.00
C 551.96 584.86 470.69 649.55 385.00 651.00
C 384.22 661.14 386.62 672.14 383.69 681.69 C 365.16 684.98 342.84 685.53 324.00 682.00
C 321.83 672.46 328.64 655.94 319.99 651.01 C 227.06 646.85 142.97 569.71 150.00 471.00 C 150.37 392.59 150.53 313.07 151.00 233.00 C 145.24 184.47 175.19 139.02 219.22 126.22 C 227.00 124.67 241.32 117.83 245.97 126.03 C 240.82 135.18 247.23 146.36 244.00 155.00
M 336.00 327.00 
C 348.71 337.83 363.69 343.45 376.75 353.25 C 389.27 362.55 413.31 365.54 412.00 386.00 C 407.09 408.81 380.00 395.90 368.97 387.03 C 354.52 377.95 340.73 370.74 326.26 361.74 C 314.78 351.44 289.04 348.95 294.00 328.00 C 290.01 306.12 314.98 303.87 326.70 293.70 C 340.98 285.00 355.12 278.19 369.25 268.25 C 381.37 260.11 404.56 245.73 410.99 268.01 C 416.09 289.15 390.49 290.99 378.92 301.92 C 364.29 309.95 350.32 318.26 336.00 327.00
M 506.00 255.00 
C 528.07 268.73 506.82 293.50 503.08 311.08 C 495.58 330.04 489.59 350.56 482.08 369.08 C 473.92 385.56 474.24 418.88 448.78 414.22 C 425.79 402.84 447.93 375.55 450.99 358.99 C 458.45 339.09 464.70 321.23 472.26 301.26 C 481.65 284.82 478.72 251.41 506.00 255.00
M 707.00 700.00 
C 704.16 638.08 778.07 593.36 830.68 624.32 C 883.28 649.40 889.30 734.30 839.75 766.75 C 801.00 795.05 741.70 781.57 719.23 741.77 C 716.01 726.00 698.34 732.05 686.00 731.00 C 651.05 735.05 602.16 722.63 584.74 759.74 C 576.68 783.81 583.69 813.64 573.10 836.10 C 560.26 894.84 492.71 925.10 433.98 913.02 C 375.34 906.57 332.88 850.07 337.00 790.00 C 337.00 760.67 337.00 731.33 337.00 702.00 C 339.26 690.76 363.32 692.82 369.77 699.23 C 374.49 759.19 352.18 843.30 414.10 872.90 C 455.47 891.19 517.65 883.77 537.92 838.92 C 554.88 806.78 537.94 760.88 563.25 732.25 C 584.79 702.03 624.35 696.71 663.00 700.00 C 677.67 700.00 692.33 700.00 707.00 700.00 Z"/>
</g>
<g fill="#B4C3C9" fill-opacity="0.15" stroke="None">
<path d="
M 295.00 109.00 
C 271.52 103.51 249.05 127.07 258.67 149.33 C 263.83 170.58 296.31 174.91 309.25 159.25 C 324.96 144.20 314.77 114.43 295.00 109.00
M 294.00 111.00 
C 325.68 120.29 314.86 173.73 280.00 165.00 C 246.19 158.27 259.67 102.05 294.00 111.00 Z"/>
</g>
<g fill="#B4C3C9" fill-opacity="0.10" stroke="None">
<path d="
M 431.00 109.00 
C 406.70 103.30 385.98 127.83 395.03 149.97 C 402.26 170.98 432.13 174.72 446.70 158.70 C 460.80 142.43 451.56 113.02 431.00 109.00
M 429.00 112.00 
C 448.69 115.75 457.72 143.00 444.25 158.25 C 431.03 172.73 404.22 168.69 397.08 149.92 C 387.63 129.84 407.55 107.26 429.00 112.00 Z"/>
</g>
<g fill="#B4C3C9" fill-opacity="0.96" stroke="None">
<path d="
M 294.00 111.00 
C 259.67 102.05 246.19 158.27 280.00 165.00 C 314.86 173.73 325.68 120.29 294.00 111.00 Z"/>
</g>
<g fill="#B4C3C9" fill-opacity="0.93" stroke="None">
<path d="
M 429.00 112.00 
C 407.55 107.26 387.63 129.84 397.08 149.92 C 404.22 168.69 431.03 172.73 444.25 158.25 C 457.72 143.00 448.69 115.75 429.00 112.00 Z"/>
</g>
<g fill="#B4C3C9" fill-opacity="0.16" stroke="None">
<path d="
M 244.00 155.00 
C 247.23 146.36 240.82 135.18 245.97 126.03 C 241.32 117.83 227.00 124.67 219.22 126.22 C 175.19 139.02 145.24 184.47 151.00 233.00 C 150.53 313.07 150.37 392.59 150.00 471.00 C 142.97 569.71 227.06 646.85 319.99 651.01 C 328.64 655.94 321.83 672.46 324.00 682.00
C 342.84 685.53 365.16 684.98 383.69 681.69 C 386.62 672.14 384.22 661.14 385.00 651.00
C 470.69 649.55 551.96 584.86 558.00 498.00
C 561.23 498.94 563.33 496.67 566.00 496.00
C 569.64 505.78 562.92 523.56 581.00 519.00 C 646.86 518.88 711.45 519.45 777.00 519.00 C 814.40 520.38 832.56 483.15 826.00 449.00 C 825.30 356.77 827.41 263.88 824.93 172.07 C 825.60 134.32 786.55 120.18 753.00 125.00 C 687.52 125.05 621.83 124.36 557.00 127.00 C 548.12 127.40 527.40 118.69 529.00 134.00
C 552.35 150.49 568.25 178.84 570.00 208.00 C 566.93 221.83 578.73 252.38 558.00 251.00
C 558.00 240.00 558.00 229.00 558.00 218.00 C 559.42 174.57 527.85 136.59 489.00 125.00 C 481.19 125.39 467.40 116.93 464.10 126.90 C 468.73 134.42 464.29 146.53 466.00 155.00
C 479.63 157.03 492.20 160.97 501.92 170.08 C 527.20 186.18 526.36 219.95 525.00 249.00 C 525.00 300.00 525.00 351.00 525.00 402.00 C 528.36 418.64 504.84 415.34 500.75 428.75 C 491.49 441.36 496.10 458.77 495.00 474.00 C 499.48 531.53 451.32 572.79 402.00 585.00 C 333.67 595.67 249.16 583.60 221.97 516.03 C 207.17 489.78 220.45 454.69 208.92 427.08 C 204.28 413.55 179.62 419.20 185.00 400.00 C 186.07 333.85 183.33 265.56 186.08 199.08 C 195.48 174.92 217.16 157.27 244.00 155.00
M 557.00 255.00 
C 562.69 256.22 573.47 253.32 572.00 245.00
C 572.00 230.33 572.00 215.67 572.00 201.00
C 570.37 175.00 555.18 151.36 536.00 134.00
C 534.74 124.38 553.80 130.91 561.00 129.00 C 635.25 129.66 710.17 127.68 784.01 129.99 C 791.78 131.93 800.66 133.43 806.00 140.00
C 833.48 163.20 817.85 206.95 822.00 240.00 C 822.00 317.33 822.00 394.67 822.00 472.00 C 823.65 510.24 780.58 519.88 749.00 515.00 C 691.00 515.00 633.00 515.00 575.00 515.00 C 565.66 500.64 580.64 479.83 570.00 465.00
C 566.09 468.63 563.81 462.31 560.00 463.00
C 560.70 466.27 556.76 467.81 557.00 471.00
C 562.60 561.55 483.10 643.77 396.00 647.00
C 389.16 646.71 379.31 648.58 382.00 658.00 C 380.77 665.39 384.62 674.72 379.75 680.75 C 363.01 681.11 345.98 681.28 329.33 680.67 C 324.29 674.89 328.27 665.31 327.00 658.00 C 331.04 645.52 315.67 651.43 312.00 647.00
C 239.98 640.47 166.17 587.43 157.67 511.33 C 149.37 502.16 155.85 488.05 154.00 476.00 C 154.01 462.74 153.13 449.30 157.00 437.00
C 157.59 434.09 155.41 431.94 156.00 429.00
C 155.00 426.21 154.82 423.11 155.00 420.00
C 152.67 356.83 154.66 292.58 154.00 229.00 C 146.90 178.18 189.21 126.04 241.00 126.00
C 239.31 136.13 246.67 153.64 231.78 153.78 C 212.44 156.34 199.22 171.83 187.00 185.00
C 186.78 195.05 178.90 205.36 181.00 217.00 C 181.66 283.14 179.67 350.87 182.00 416.00
C 222.14 419.21 207.70 468.20 212.00 496.00 C 230.46 591.04 356.28 611.39 433.69 576.70 C 457.31 565.78 478.14 545.93 489.92 521.92 C 506.04 493.76 488.54 454.34 506.00 427.00
C 510.85 420.11 520.34 419.01 528.00 416.00
C 528.00 380.33 528.00 344.67 528.00 309.00 C 526.83 273.76 530.35 237.12 526.23 202.77 C 521.55 176.39 495.56 154.71 468.00 153.00
C 470.66 142.60 460.11 120.25 478.00 126.00 C 519.91 133.09 555.49 173.35 553.98 216.02 C 556.25 228.65 552.67 243.17 557.00 255.00 Z"/>
</g>
<g fill="#B4C3C9" fill-opacity="0.97" stroke="None">
<path d="
M 528.00 416.00 
C 534.26 421.18 546.31 413.05 554.07 418.93 C 558.56 399.09 554.72 375.34 556.00 354.00 C 556.67 321.16 554.67 287.01 557.00 255.00
C 552.67 243.17 556.25 228.65 553.98 216.02 C 555.49 173.35 519.91 133.09 478.00 126.00 C 460.11 120.25 470.66 142.60 468.00 153.00
C 495.56 154.71 521.55 176.39 526.23 202.77 C 530.35 237.12 526.83 273.76 528.00 309.00 C 528.00 344.67 528.00 380.33 528.00 416.00 Z"/>
</g>
<g fill="#B4C3C9" fill-opacity="0.97" stroke="None">
<path d="
M 155.00 420.00 
C 162.18 415.65 172.26 416.25 180.00 419.00
C 180.95 418.13 180.54 416.32 182.00 416.00
C 179.67 350.87 181.66 283.14 181.00 217.00 C 178.90 205.36 186.78 195.05 187.00 185.00
C 199.22 171.83 212.44 156.34 231.78 153.78 C 246.67 153.64 239.31 136.13 241.00 126.00
C 189.21 126.04 146.90 178.18 154.00 229.00 C 154.66 292.58 152.67 356.83 155.00 420.00 Z"/>
</g>
<g fill="#464E5A" fill-opacity="0.73" stroke="None">
<path d="
M 536.00 134.00 
C 538.91 136.08 537.15 132.50 537.00 131.00
C 599.00 131.00 661.00 131.00 723.00 131.00 C 750.65 132.75 783.87 125.41 806.00 140.00
C 800.66 133.43 791.78 131.93 784.01 129.99 C 710.17 127.68 635.25 129.66 561.00 129.00 C 553.80 130.91 534.74 124.38 536.00 134.00 Z"/>
</g>
<g fill="#464E5A" fill-opacity="1.00" stroke="None">
<path d="
M 536.00 134.00 
C 555.18 151.36 570.37 175.00 572.00 201.00
C 575.10 214.06 575.47 232.12 572.00 245.00
C 573.47 253.32 562.69 256.22 557.00 255.00
C 554.67 287.01 556.67 321.16 556.00 354.00 C 554.72 375.34 558.56 399.09 554.07 418.93 C 546.31 413.05 534.26 421.18 528.00 416.00
C 520.34 419.01 510.85 420.11 506.00 427.00
C 506.20 429.34 503.07 430.38 504.00 433.00
C 509.47 424.70 521.42 417.89 529.08 420.92 C 539.57 418.49 553.24 417.50 560.00 424.00
C 553.11 426.33 546.37 426.47 538.00 426.00
C 543.01 428.04 549.85 426.17 555.00 429.00
C 555.19 423.85 565.04 423.07 564.00 429.00
C 558.41 426.47 556.73 431.95 552.00 432.00
C 555.39 434.57 556.02 443.22 561.00 441.00
C 560.03 446.91 560.48 453.20 559.00 459.00
C 556.01 453.43 560.67 444.72 555.23 439.77 C 552.68 433.22 544.25 435.25 540.00 432.00
C 525.51 438.84 529.14 455.24 529.00 469.00 C 531.57 520.88 506.48 569.85 463.75 595.75 C 397.53 633.50 297.40 630.20 237.75 590.25 C 231.28 582.51 216.54 577.57 215.00 567.00
C 211.23 567.27 205.03 560.32 209.00 558.00
C 202.54 558.75 199.90 548.78 196.68 543.32 C 183.86 521.25 180.78 495.35 181.00 469.00 C 182.20 459.94 178.52 448.35 183.00 441.00
C 178.76 442.41 175.23 437.83 173.00 434.00
C 168.67 434.00 164.33 434.00 160.00 434.00
C 162.13 431.65 166.51 434.25 169.00 432.00
C 166.24 429.84 161.51 431.55 158.00 431.00
C 156.66 433.17 157.66 428.78 156.00 429.00
C 155.41 431.94 157.59 434.09 157.00 437.00
C 178.05 427.95 182.04 453.15 179.00 469.00 C 174.70 529.97 212.97 589.82 270.69 609.31 C 355.40 639.22 477.23 626.70 518.77 535.77 C 524.25 520.66 529.02 505.37 530.00 489.00 C 532.81 472.11 523.60 450.55 536.25 437.25 C 558.38 427.75 556.48 457.64 557.00 471.00
C 556.76 467.81 560.70 466.27 560.00 463.00
C 563.81 462.31 566.09 468.63 570.00 465.00
C 580.64 479.83 565.66 500.64 575.00 515.00 C 633.00 515.00 691.00 515.00 749.00 515.00 C 780.58 519.88 823.65 510.24 822.00 472.00 C 822.00 394.67 822.00 317.33 822.00 240.00 C 817.85 206.95 833.48 163.20 806.00 140.00
C 783.87 125.41 750.65 132.75 723.00 131.00 C 661.00 131.00 599.00 131.00 537.00 131.00
C 537.15 132.50 538.91 136.08 536.00 134.00
M 760.00 187.00 
C 775.47 188.31 774.92 215.14 758.00 213.00 C 740.49 214.18 743.29 184.68 760.00 187.00
M 717.00 188.00 
C 731.61 195.23 722.60 218.56 706.33 212.67 C 690.48 206.08 700.60 182.03 717.00 188.00
M 682.00 327.00 
C 658.67 313.71 635.83 299.63 612.92 286.08 C 595.58 282.07 603.30 253.37 620.02 258.98 C 643.91 270.96 666.37 286.08 689.70 299.30 C 700.45 307.44 721.38 310.57 716.00 329.00 C 721.96 345.91 700.29 348.34 690.31 356.30 C 666.56 369.18 644.03 385.45 619.33 396.33 C 601.90 401.95 596.61 373.32 613.23 369.23 C 635.82 355.05 661.61 342.99 682.00 327.00
M 566.00 429.00 
C 570.92 432.59 563.54 435.40 564.00 440.00
C 560.33 435.56 564.52 433.09 566.00 429.00
M 561.00 430.00 
C 560.25 432.79 558.79 435.51 559.00 438.00
C 555.71 434.68 557.66 431.75 561.00 430.00
M 570.00 435.00 
C 570.57 439.36 574.06 444.92 571.00 449.00
C 568.48 445.18 568.04 438.77 570.00 435.00
M 566.00 445.00 
C 566.20 447.09 568.44 450.45 566.00 452.00
C 562.66 450.96 564.53 446.53 566.00 445.00 Z"/>
</g>
<g fill="#B4C3C9" fill-opacity="1.00" stroke="None">
<path d="
M 760.00 187.00 
C 743.29 184.68 740.49 214.18 758.00 213.00 C 774.92 215.14 775.47 188.31 760.00 187.00 Z"/>
</g>
<g fill="#B4C3C9" fill-opacity="1.00" stroke="None">
<path d="
M 717.00 188.00 
C 700.60 182.03 690.48 206.08 706.33 212.67 C 722.60 218.56 731.61 195.23 717.00 188.00 Z"/>
</g>
<g fill="#B4C3C9" fill-opacity="0.40" stroke="None">
<path d="
M 572.00 245.00 
C 575.47 232.12 575.10 214.06 572.00 201.00
C 572.00 215.67 572.00 230.33 572.00 245.00 Z"/>
</g>
<g fill="#B4C3C9" fill-opacity="0.11" stroke="None">
<path d="
M 336.00 327.00 
C 350.32 318.26 364.29 309.95 378.92 301.92 C 390.49 290.99 416.09 289.15 410.99 268.01 C 404.56 245.73 381.37 260.11 369.25 268.25 C 355.12 278.19 340.98 285.00 326.70 293.70 C 314.98 303.87 290.01 306.12 294.00 328.00 C 289.04 348.95 314.78 351.44 326.26 361.74 C 340.73 370.74 354.52 377.95 368.97 387.03 C 380.00 395.90 407.09 408.81 412.00 386.00 C 413.31 365.54 389.27 362.55 376.75 353.25 C 363.69 343.45 348.71 337.83 336.00 327.00
M 399.00 258.00 
C 411.21 262.26 412.59 280.74 399.77 285.77 C 381.29 298.76 360.66 310.84 340.75 320.75 C 322.55 326.59 342.16 336.50 350.70 340.30 C 367.99 355.33 392.54 358.92 408.92 376.08 C 415.15 389.20 399.90 403.85 387.78 395.22 C 358.32 377.81 329.39 359.05 299.92 342.08 C 294.24 332.36 294.24 313.14 307.25 308.25 C 326.91 296.38 346.99 285.74 366.25 273.25 C 377.26 268.52 386.36 258.30 399.00 258.00 Z"/>
</g>
<g fill="#B4C3C9" fill-opacity="0.14" stroke="None">
<path d="
M 506.00 255.00 
C 478.72 251.41 481.65 284.82 472.26 301.26 C 464.70 321.23 458.45 339.09 450.99 358.99 C 447.93 375.55 425.79 402.84 448.78 414.22 C 474.24 418.88 473.92 385.56 482.08 369.08 C 489.59 350.56 495.58 330.04 503.08 311.08 C 506.82 293.50 528.07 268.73 506.00 255.00
M 505.00 258.00 
C 523.74 269.06 503.27 289.28 503.67 304.67 C 489.94 335.02 481.21 367.12 468.08 398.08 C 467.06 421.79 430.07 410.63 442.98 389.98 C 454.32 358.56 465.44 327.02 477.92 295.92 C 483.43 282.18 483.68 255.17 505.00 258.00 Z"/>
</g>
<g fill="#B4C3C9" fill-opacity="0.94" stroke="None">
<path d="
M 399.00 258.00 
C 386.36 258.30 377.26 268.52 366.25 273.25 C 346.99 285.74 326.91 296.38 307.25 308.25 C 294.24 313.14 294.24 332.36 299.92 342.08 C 329.39 359.05 358.32 377.81 387.78 395.22 C 399.90 403.85 415.15 389.20 408.92 376.08 C 392.54 358.92 367.99 355.33 350.70 340.30 C 342.16 336.50 322.55 326.59 340.75 320.75 C 360.66 310.84 381.29 298.76 399.77 285.77 C 412.59 280.74 411.21 262.26 399.00 258.00 Z"/>
</g>
<g fill="#B4C3C9" fill-opacity="0.95" stroke="None">
<path d="
M 505.00 258.00 
C 483.68 255.17 483.43 282.18 477.92 295.92 C 465.44 327.02 454.32 358.56 442.98 389.98 C 430.07 410.63 467.06 421.79 468.08 398.08 C 481.21 367.12 489.94 335.02 503.67 304.67 C 503.27 289.28 523.74 269.06 505.00 258.00 Z"/>
</g>
<g fill="#B4C3C9" fill-opacity="1.00" stroke="None">
<path d="
M 682.00 327.00 
C 661.61 342.99 635.82 355.05 613.23 369.23 C 596.61 373.32 601.90 401.95 619.33 396.33 C 644.03 385.45 666.56 369.18 690.31 356.30 C 700.29 348.34 721.96 345.91 716.00 329.00 C 721.38 310.57 700.45 307.44 689.70 299.30 C 666.37 286.08 643.91 270.96 620.02 258.98 C 603.30 253.37 595.58 282.07 612.92 286.08 C 635.83 299.63 658.67 313.71 682.00 327.00 Z"/>
</g>
<g fill="#464E5A" fill-opacity="0.76" stroke="None">
<path d="
M 155.00 420.00 
C 154.82 423.11 155.00 426.21 156.00 429.00
C 157.66 428.78 156.66 433.17 158.00 431.00
C 157.37 428.47 160.53 429.10 162.00 429.00
C 160.77 426.86 155.79 425.99 161.00 425.00
C 159.75 423.38 157.17 422.64 156.00 421.00
C 164.81 415.33 175.88 422.73 184.00 419.00
C 183.75 422.73 193.11 418.58 197.07 422.93 C 216.51 438.95 205.37 471.63 209.93 495.07 C 215.63 538.47 251.86 573.82 292.01 583.99 C 370.26 613.25 489.23 585.19 499.78 491.78 C 503.15 473.35 497.64 451.12 504.00 433.00
C 503.07 430.38 506.20 429.34 506.00 427.00
C 488.54 454.34 506.04 493.76 489.92 521.92 C 478.14 545.93 457.31 565.78 433.69 576.70 C 356.28 611.39 230.46 591.04 212.00 496.00 C 207.70 468.20 222.14 419.21 182.00 416.00
C 180.54 416.32 180.95 418.13 180.00 419.00
C 172.26 416.25 162.18 415.65 155.00 420.00 Z"/>
</g>
<g fill="#000002" fill-opacity="1.00" stroke="None">
<path d="
M 158.00 431.00 
C 161.51 431.55 166.24 429.84 169.00 432.00
C 166.51 434.25 162.13 431.65 160.00 434.00
C 164.33 434.00 168.67 434.00 173.00 434.00
C 175.23 437.83 178.76 442.41 183.00 441.00
C 178.52 448.35 182.20 459.94 181.00 469.00 C 180.78 495.35 183.86 521.25 196.68 543.32 C 199.90 548.78 202.54 558.75 209.00 558.00
C 205.03 560.32 211.23 567.27 215.00 567.00
C 216.54 577.57 231.28 582.51 237.75 590.25 C 297.40 630.20 397.53 633.50 463.75 595.75 C 506.48 569.85 531.57 520.88 529.00 469.00 C 529.14 455.24 525.51 438.84 540.00 432.00
C 544.25 435.25 552.68 433.22 555.23 439.77 C 560.67 444.72 556.01 453.43 559.00 459.00
C 560.48 453.20 560.03 446.91 561.00 441.00
C 556.02 443.22 555.39 434.57 552.00 432.00
C 556.73 431.95 558.41 426.47 564.00 429.00
C 565.04 423.07 555.19 423.85 555.00 429.00
C 549.85 426.17 543.01 428.04 538.00 426.00
C 546.37 426.47 553.11 426.33 560.00 424.00
C 553.24 417.50 539.57 418.49 529.08 420.92 C 521.42 417.89 509.47 424.70 504.00 433.00
C 497.64 451.12 503.15 473.35 499.78 491.78 C 489.23 585.19 370.26 613.25 292.01 583.99 C 251.86 573.82 215.63 538.47 209.93 495.07 C 205.37 471.63 216.51 438.95 197.07 422.93 C 193.11 418.58 183.75 422.73 184.00 419.00
C 175.88 422.73 164.81 415.33 156.00 421.00
C 157.17 422.64 159.75 423.38 161.00 425.00
C 155.79 425.99 160.77 426.86 162.00 429.00
C 160.53 429.10 157.37 428.47 158.00 431.00
M 551.00 422.00 
C 545.22 426.29 545.83 416.83 551.00 422.00
M 550.00 431.00 
C 544.82 433.31 543.10 428.00 550.00 431.00
M 257.00 593.00 
C 254.54 591.56 251.23 591.34 249.00 590.00
C 251.51 587.96 256.56 590.12 257.00 593.00
M 280.00 606.00 
C 279.71 610.72 274.36 605.06 280.00 606.00 Z"/>
</g>
<g fill="#464E5A" fill-opacity="1.00" stroke="None">
<path d="
M 551.00 422.00 
C 545.83 416.83 545.22 426.29 551.00 422.00 Z"/>
</g>
<g fill="#000002" fill-opacity="1.00" stroke="None">
<path d="
M 566.00 429.00 
C 564.52 433.09 560.33 435.56 564.00 440.00
C 563.54 435.40 570.92 432.59 566.00 429.00 Z"/>
</g>
<g fill="#464E5A" fill-opacity="1.00" stroke="None">
<path d="
M 550.00 431.00 
C 543.10 428.00 544.82 433.31 550.00 431.00 Z"/>
</g>
<g fill="#000002" fill-opacity="1.00" stroke="None">
<path d="
M 561.00 430.00 
C 557.66 431.75 555.71 434.68 559.00 438.00
C 558.79 435.51 560.25 432.79 561.00 430.00 Z"/>
</g>
<g fill="#B4C3C9" fill-opacity="0.98" stroke="None">
<path d="
M 157.00 437.00 
C 153.13 449.30 154.01 462.74 154.00 476.00 C 155.85 488.05 149.37 502.16 157.67 511.33 C 166.17 587.43 239.98 640.47 312.00 647.00
C 317.68 648.53 329.81 645.22 328.00 655.00 C 327.63 662.85 328.28 670.41 329.00 678.00
C 344.84 679.76 362.36 679.41 378.22 678.22 C 382.27 672.68 378.89 662.37 380.00 655.00 C 377.50 646.08 390.61 644.40 396.00 647.00
C 483.10 643.77 562.60 561.55 557.00 471.00
C 556.48 457.64 558.38 427.75 536.25 437.25 C 523.60 450.55 532.81 472.11 530.00 489.00 C 529.02 505.37 524.25 520.66 518.77 535.77 C 477.23 626.70 355.40 639.22 270.69 609.31 C 212.97 589.82 174.70 529.97 179.00 469.00 C 182.04 453.15 178.05 427.95 157.00 437.00 Z"/>
</g>
<g fill="#000002" fill-opacity="1.00" stroke="None">
<path d="
M 570.00 435.00 
C 568.04 438.77 568.48 445.18 571.00 449.00
C 574.06 444.92 570.57 439.36 570.00 435.00 Z"/>
</g>
<g fill="#000002" fill-opacity="1.00" stroke="None">
<path d="
M 566.00 445.00 
C 564.53 446.53 562.66 450.96 566.00 452.00
C 568.44 450.45 566.20 447.09 566.00 445.00 Z"/>
</g>
<g fill="#464E5A" fill-opacity="1.00" stroke="None">
<path d="
M 257.00 593.00 
C 256.56 590.12 251.51 587.96 249.00 590.00
C 251.23 591.34 254.54 591.56 257.00 593.00 Z"/>
</g>
<g fill="#464E5A" fill-opacity="1.00" stroke="None">
<path d="
M 280.00 606.00 
C 274.36 605.06 279.71 610.72 280.00 606.00 Z"/>
</g>
<g fill="#B4C3C9" fill-opacity="0.15" stroke="None">
<path d="
M 707.00 700.00 
C 692.33 700.00 677.67 700.00 663.00 700.00 C 624.35 696.71 584.79 702.03 563.25 732.25 C 537.94 760.88 554.88 806.78 537.92 838.92 C 517.65 883.77 455.47 891.19 414.10 872.90 C 352.18 843.30 374.49 759.19 369.77 699.23 C 363.32 692.82 339.26 690.76 337.00 702.00 C 337.00 731.33 337.00 760.67 337.00 790.00 C 332.88 850.07 375.34 906.57 433.98 913.02 C 492.71 925.10 560.26 894.84 573.10 836.10 C 583.69 813.64 576.68 783.81 584.74 759.74 C 602.16 722.63 651.05 735.05 686.00 731.00 C 698.34 732.05 716.01 726.00 719.23 741.77 C 741.70 781.57 801.00 795.05 839.75 766.75 C 889.30 734.30 883.28 649.40 830.68 624.32 C 778.07 593.36 704.16 638.08 707.00 700.00
M 401.00 869.00 
C 413.54 874.04 429.29 882.95 444.00 885.00
C 475.94 886.38 513.50 881.96 532.92 852.92 C 545.08 836.42 550.68 814.15 550.00 791.00 C 545.30 746.22 581.60 703.80 626.00 702.00 C 653.33 702.00 680.67 702.00 708.00 702.00 C 711.79 691.86 709.28 678.27 714.98 667.98 C 735.79 616.96 807.83 600.59 846.25 640.75 C 888.82 678.42 872.76 752.40 821.92 773.92 C 790.26 782.10 752.43 780.04 730.25 752.75 C 723.97 745.67 717.43 735.24 714.00 729.00
C 685.34 729.52 656.05 727.96 627.78 729.78 C 586.54 728.27 569.37 773.10 576.00 809.00 C 573.40 867.99 518.95 916.12 460.00 912.00 C 402.76 915.06 345.41 872.42 342.00 813.00 C 337.58 785.28 341.15 755.54 340.00 727.00 C 340.46 714.56 334.89 692.46 355.00 698.00 C 373.85 694.28 365.07 717.94 367.00 729.00 C 369.01 778.70 356.39 836.92 401.00 869.00 Z"/>
</g>
<g fill="#B4C3C9" fill-opacity="0.96" stroke="None">
<path d="
M 444.00 885.00 
C 427.50 885.91 413.13 878.79 401.00 869.00
C 356.39 836.92 369.01 778.70 367.00 729.00 C 365.07 717.94 373.85 694.28 355.00 698.00 C 334.89 692.46 340.46 714.56 340.00 727.00 C 341.15 755.54 337.58 785.28 342.00 813.00 C 345.41 872.42 402.76 915.06 460.00 912.00 C 518.95 916.12 573.40 867.99 576.00 809.00 C 569.37 773.10 586.54 728.27 627.78 729.78 C 656.05 727.96 685.34 729.52 714.00 729.00
C 717.43 735.24 723.97 745.67 730.25 752.75 C 752.43 780.04 790.26 782.10 821.92 773.92 C 872.76 752.40 888.82 678.42 846.25 640.75 C 807.83 600.59 735.79 616.96 714.98 667.98 C 709.28 678.27 711.79 691.86 708.00 702.00 C 680.67 702.00 653.33 702.00 626.00 702.00 C 581.60 703.80 545.30 746.22 550.00 791.00 C 550.68 814.15 545.08 836.42 532.92 852.92 C 513.50 881.96 475.94 886.38 444.00 885.00
M 800.00 644.00 
C 839.95 648.61 858.77 701.54 833.23 732.23 C 808.99 763.86 756.31 757.16 741.08 720.92 C 721.90 683.68 758.44 637.16 800.00 644.00 Z"/>
</g>
<g fill="#B4C3C9" fill-opacity="0.18" stroke="None">
<path d="
M 800.00 644.00 
C 758.44 637.16 721.90 683.68 741.08 720.92 C 756.31 757.16 808.99 763.86 833.23 732.23 C 858.77 701.54 839.95 648.61 800.00 644.00
M 804.00 648.00 
C 838.87 656.01 855.03 705.16 829.70 731.70 C 807.99 760.50 756.36 751.63 744.03 717.97 C 727.94 679.20 763.04 638.99 804.00 648.00 Z"/>
</g>
<g fill="#B4C3C9" fill-opacity="0.70" stroke="None">
<path d="
M 312.00 647.00 
C 315.67 651.43 331.04 645.52 327.00 658.00 C 328.27 665.31 324.29 674.89 329.33 680.67 C 345.98 681.28 363.01 681.11 379.75 680.75 C 384.62 674.72 380.77 665.39 382.00 658.00 C 379.31 648.58 389.16 646.71 396.00 647.00
C 390.61 644.40 377.50 646.08 380.00 655.00 C 378.89 662.37 382.27 672.68 378.22 678.22 C 362.36 679.41 344.84 679.76 329.00 678.00
C 328.28 670.41 327.63 662.85 328.00 655.00 C 329.81 645.22 317.68 648.53 312.00 647.00 Z"/>
</g>
<g fill="#000002" fill-opacity="0.00" stroke="None">
<path d="
M 804.00 648.00 
C 763.04 638.99 727.94 679.20 744.03 717.97 C 756.36 751.63 807.99 760.50 829.70 731.70 C 855.03 705.16 838.87 656.01 804.00 648.00
M 794.00 662.00 
C 821.28 662.80 837.89 697.90 821.10 719.10 C 806.70 741.14 770.76 738.91 758.70 715.30 C 745.22 691.92 766.50 659.50 794.00 662.00 Z"/>
</g>
<g fill="#B4C3C9" fill-opacity="0.13" stroke="None">
<path d="
M 794.00 662.00 
C 766.50 659.50 745.22 691.92 758.70 715.30 C 770.76 738.91 806.70 741.14 821.10 719.10 C 837.89 697.90 821.28 662.80 794.00 662.00
M 799.00 666.00 
C 822.74 669.26 834.04 703.41 816.25 720.25 C 801.01 739.44 768.75 732.77 760.08 710.92 C 747.84 687.45 773.72 659.52 799.00 666.00 Z"/>
</g>
<g fill="#B4C3C9" fill-opacity="0.96" stroke="None">
<path d="
M 799.00 666.00 
C 773.72 659.52 747.84 687.45 760.08 710.92 C 768.75 732.77 801.01 739.44 816.25 720.25 C 834.04 703.41 822.74 669.26 799.00 666.00 Z"/>
</g>
<g fill="#B4C3C9" fill-opacity="0.56" stroke="None">
<path d="
M 401.00 869.00 
C 413.13 878.79 427.50 885.91 444.00 885.00
C 429.29 882.95 413.54 874.04 401.00 869.00 Z"/>
</g>
</svg>