<svg xmlns="http://www.w3.org/2000/svg" xmlns:v="https://svgstorm.com"
viewBox = "0 0 1024 1024"
width="1024"
height="1024">
<g fill="None" fill-opacity="0.0" stroke="#F7FDFD" stroke-opacity="1.00" stroke-width="0.3"><path d="
M 0.00 1024.00 
L 1024.00 1024.00
L 1024.00 0.00
L 0.00 0.00
L 0.00 1024.00
M 255.00 743.00 
C 299.00 743.00 343.00 743.00 387.00 743.00 C 404.79 740.53 417.63 756.07 427.30 768.70 C 437.24 782.18 445.30 797.43 448.00 814.00 C 454.57 829.78 439.55 859.78 465.00 861.00
C 464.28 837.67 466.79 813.56 463.00 791.00
C 440.26 787.70 432.41 753.68 455.23 744.23 C 477.77 732.46 501.43 764.81 482.25 782.25 C 475.15 792.21 484.74 805.03 482.00 817.00 C 482.00 831.00 482.00 845.00 482.00 859.00 C 478.07 873.38 491.40 877.83 502.00 881.00
C 502.00 844.00 502.00 807.00 502.00 770.00 C 503.85 760.01 495.55 738.48 513.00 743.00 C 563.74 746.86 604.88 715.04 643.75 687.75 C 649.10 679.55 661.63 674.54 664.97 687.03 C 667.41 695.79 654.57 700.83 649.25 706.25 C 619.98 728.59 587.23 746.72 552.78 758.78 C 544.32 763.77 523.52 754.60 525.00 769.00 C 522.71 805.51 524.63 843.08 524.00 880.00
C 538.10 878.52 541.35 865.59 539.00 853.00 C 540.88 828.67 532.42 799.82 551.25 781.25 C 575.97 762.45 607.75 755.98 632.25 736.25 C 648.74 724.96 664.99 713.16 679.25 698.25 C 690.10 689.21 679.30 679.41 678.01 668.99 C 675.09 643.89 713.97 633.87 723.92 657.08 C 729.60 666.69 726.58 679.69 717.75 686.75 C 708.23 691.88 696.92 692.83 694.70 705.70 C 661.41 745.63 614.11 768.79 569.25 791.25 C 549.16 808.75 557.86 838.31 557.00 862.00
C 567.77 857.43 579.61 851.16 575.00 836.00 C 571.18 796.18 616.97 788.35 641.23 769.23 C 675.89 747.17 709.20 719.32 735.25 686.25 C 741.09 677.34 750.82 667.56 747.02 655.98 C 744.35 645.19 731.45 635.30 739.31 623.31 C 743.58 613.10 748.53 603.11 752.92 592.92 C 753.96 582.53 766.13 569.88 757.25 560.75 C 730.78 545.37 749.89 513.80 747.00 490.00 C 748.64 462.40 741.85 436.95 737.00 411.00
C 753.47 406.24 762.26 416.87 761.99 432.01 C 767.46 459.16 768.85 489.12 765.07 517.07 C 763.08 529.52 760.66 542.68 773.75 550.25 C 786.54 557.64 778.92 573.25 776.07 584.07 C 771.55 605.52 745.73 626.99 763.92 648.08 C 774.75 683.14 736.88 708.05 717.25 733.25 C 684.26 763.49 647.88 788.61 608.92 808.92 C 597.94 815.24 592.69 827.77 593.00 840.00
C 646.08 811.30 694.66 773.16 739.75 730.75 C 786.92 684.69 825.26 624.75 821.00 558.00
C 809.71 576.06 807.38 598.00 798.07 617.07 C 792.93 624.04 792.03 641.01 780.93 639.07 C 766.84 635.62 775.74 620.72 779.78 612.78 C 796.05 587.55 789.99 544.46 823.00 533.00
C 827.41 451.38 819.52 370.06 772.75 304.25 C 734.64 246.09 672.73 207.51 608.00 190.00
C 607.84 182.53 610.74 175.81 613.00 169.00
C 706.19 188.96 789.69 262.21 823.00 352.00
C 825.33 318.90 823.33 283.85 824.00 250.00 C 822.53 237.75 805.57 233.84 796.77 226.23 C 713.98 176.29 621.33 146.06 525.00 136.00
C 526.75 155.85 526.45 177.14 525.00 197.00
C 560.21 199.10 594.76 204.54 627.22 216.78 C 641.33 217.41 635.01 236.07 627.30 239.64 C 594.22 229.23 560.81 219.33 525.00 219.00
C 525.00 237.00 525.00 255.00 525.00 273.00
C 655.17 274.01 757.26 411.08 725.22 537.22 C 723.28 547.14 718.05 560.05 730.75 565.25 C 752.59 577.93 731.07 602.61 726.23 619.23 C 724.53 628.24 715.87 640.52 706.31 631.70 C 697.36 623.44 710.10 613.17 712.92 604.92 C 715.55 596.64 726.88 584.87 718.25 577.75 C 711.71 572.05 697.15 569.23 700.98 557.98 C 731.13 467.97 692.37 360.55 606.77 316.23 C 577.74 300.82 545.76 291.89 512.00 292.00 C 494.86 295.63 504.46 272.84 502.00 263.00 C 502.00 210.00 502.00 157.00 502.00 104.00
C 614.47 111.75 722.67 145.17 818.23 203.77 C 829.96 214.67 854.98 218.56 854.00 238.00 C 854.78 351.72 857.67 468.07 852.00 581.00 C 835.82 720.81 703.53 809.66 592.92 876.92 C 578.30 885.90 563.46 894.30 548.31 902.31 C 532.73 907.31 516.94 926.36 500.31 914.70 C 425.39 877.73 353.98 833.49 289.75 778.25 C 278.11 767.20 262.94 756.77 255.00 743.00
M 484.00 177.00 
C 459.14 177.65 424.58 170.40 414.70 199.70 C 403.09 218.05 397.43 242.67 376.92 253.92 C 351.29 265.97 320.41 259.22 292.00 261.00 C 265.02 264.24 232.34 252.52 210.75 271.75 C 192.81 294.10 204.25 326.79 201.00 354.00
C 251.33 354.00 301.67 354.00 352.00 354.00 C 373.70 352.79 397.92 360.45 412.75 340.75 C 495.56 283.79 622.41 314.53 669.30 404.70 C 708.95 475.31 695.52 571.97 634.25 627.25 C 622.58 641.70 598.93 645.05 598.02 666.02 C 592.50 683.40 583.69 701.25 567.92 711.92 C 549.90 726.01 526.43 724.47 504.00 724.00 C 428.33 724.00 352.67 724.00 277.00 724.00 C 236.27 728.59 183.91 723.27 173.22 676.78 C 166.39 628.90 171.66 578.12 170.00 529.00 C 170.22 453.47 169.56 377.73 170.33 302.33 C 168.38 259.90 207.74 223.02 251.00 231.00
C 250.06 217.30 248.01 194.32 269.00 200.00 C 285.06 198.63 301.59 199.01 318.00 199.00 C 337.55 195.52 336.36 217.66 336.00 231.00
C 358.38 235.58 374.49 221.07 379.92 200.92 C 391.23 176.73 408.45 149.49 438.22 148.22 C 450.45 147.71 462.75 148.14 475.00 148.00 C 491.09 145.27 481.36 167.57 484.00 177.00
M 592.00 186.00 
C 575.88 184.87 560.51 180.71 544.33 179.67 C 539.38 174.27 542.14 164.41 542.00 157.00
C 559.62 157.02 576.45 160.58 593.22 163.78 C 600.21 168.84 592.80 179.22 592.00 186.00
M 747.00 306.00 
C 733.40 309.65 718.51 310.82 711.25 295.75 C 693.82 278.05 672.96 263.40 651.30 251.70 C 636.03 248.07 651.32 219.81 662.69 233.31 C 694.25 251.53 727.08 274.77 747.00 306.00
M 700.00 341.00 
C 658.35 294.71 603.02 263.56 542.00 257.00
C 540.67 248.57 538.82 232.75 552.00 238.00 C 610.93 244.96 664.97 274.44 706.75 318.25 C 711.97 325.68 700.92 333.11 700.00 341.00
M 271.00 294.00 
C 274.90 300.28 278.81 319.04 268.99 321.99 C 257.57 323.32 241.10 323.39 246.00 307.00 C 241.73 290.49 260.71 294.04 271.00 294.00
M 755.00 321.00 
C 781.06 325.64 794.85 360.56 777.25 381.25 C 761.63 403.22 723.66 398.22 715.08 372.92 C 702.41 347.50 726.82 315.61 755.00 321.00
M 791.00 390.00 
C 805.14 430.80 807.52 476.99 803.02 521.02 C 802.58 539.03 774.31 529.11 782.00 513.00 C 784.18 482.40 783.66 450.70 777.67 421.33 C 770.11 408.06 780.78 397.90 791.00 390.00
M 609.00 692.00 
C 612.67 680.09 613.51 664.64 626.70 658.70 C 645.75 644.09 663.57 626.24 675.92 605.92 C 683.70 598.31 686.34 575.68 700.69 586.31 C 709.45 596.89 694.30 609.52 689.70 619.70 C 669.39 649.61 641.01 676.09 609.00 692.00 Z"/>
</g>
<g fill="None" fill-opacity="0.0" stroke="#00367C" stroke-opacity="1.00" stroke-width="0.3"><path d="
M 255.00 743.00 
C 262.94 756.77 278.11 767.20 289.75 778.25 C 353.98 833.49 425.39 877.73 500.31 914.70 C 516.94 926.36 532.73 907.31 548.31 902.31 C 563.46 894.30 578.30 885.90 592.92 876.92 C 703.53 809.66 835.82 720.81 852.00 581.00 C 857.67 468.07 854.78 351.72 854.00 238.00 C 854.98 218.56 829.96 214.67 818.23 203.77 C 722.67 145.17 614.47 111.75 502.00 104.00
C 502.00 157.00 502.00 210.00 502.00 263.00 C 504.46 272.84 494.86 295.63 512.00 292.00 C 545.76 291.89 577.74 300.82 606.77 316.23 C 692.37 360.55 731.13 467.97 700.98 557.98 C 697.15 569.23 711.71 572.05 718.25 577.75 C 726.88 584.87 715.55 596.64 712.92 604.92 C 710.10 613.17 697.36 623.44 706.31 631.70 C 715.87 640.52 724.53 628.24 726.23 619.23 C 731.07 602.61 752.59 577.93 730.75 565.25 C 718.05 560.05 723.28 547.14 725.22 537.22 C 757.26 411.08 655.17 274.01 525.00 273.00
C 525.00 255.00 525.00 237.00 525.00 219.00
C 560.81 219.33 594.22 229.23 627.30 239.64 C 635.01 236.07 641.33 217.41 627.22 216.78 C 594.76 204.54 560.21 199.10 525.00 197.00
C 526.45 177.14 526.75 155.85 525.00 136.00
C 621.33 146.06 713.98 176.29 796.77 226.23 C 805.57 233.84 822.53 237.75 824.00 250.00 C 823.33 283.85 825.33 318.90 823.00 352.00
C 789.69 262.21 706.19 188.96 613.00 169.00
C 610.74 175.81 607.84 182.53 608.00 190.00
C 672.73 207.51 734.64 246.09 772.75 304.25 C 819.52 370.06 827.41 451.38 823.00 533.00
C 789.99 544.46 796.05 587.55 779.78 612.78 C 775.74 620.72 766.84 635.62 780.93 639.07 C 792.03 641.01 792.93 624.04 798.07 617.07 C 807.38 598.00 809.71 576.06 821.00 558.00
C 825.26 624.75 786.92 684.69 739.75 730.75 C 694.66 773.16 646.08 811.30 593.00 840.00
C 592.69 827.77 597.94 815.24 608.92 808.92 C 647.88 788.61 684.26 763.49 717.25 733.25 C 736.88 708.05 774.75 683.14 763.92 648.08 C 745.73 626.99 771.55 605.52 776.07 584.07 C 778.92 573.25 786.54 557.64 773.75 550.25 C 760.66 542.68 763.08 529.52 765.07 517.07 C 768.85 489.12 767.46 459.16 761.99 432.01 C 762.26 416.87 753.47 406.24 737.00 411.00
C 741.85 436.95 748.64 462.40 747.00 490.00 C 749.89 513.80 730.78 545.37 757.25 560.75 C 766.13 569.88 753.96 582.53 752.92 592.92 C 748.53 603.11 743.58 613.10 739.31 623.31 C 731.45 635.30 744.35 645.19 747.02 655.98 C 750.82 667.56 741.09 677.34 735.25 686.25 C 709.20 719.32 675.89 747.17 641.23 769.23 C 616.97 788.35 571.18 796.18 575.00 836.00 C 579.61 851.16 567.77 857.43 557.00 862.00
C 557.86 838.31 549.16 808.75 569.25 791.25 C 614.11 768.79 661.41 745.63 694.70 705.70 C 696.92 692.83 708.23 691.88 717.75 686.75 C 726.58 679.69 729.60 666.69 723.92 657.08 C 713.97 633.87 675.09 643.89 678.01 668.99 C 679.30 679.41 690.10 689.21 679.25 698.25 C 664.99 713.16 648.74 724.96 632.25 736.25 C 607.75 755.98 575.97 762.45 551.25 781.25 C 532.42 799.82 540.88 828.67 539.00 853.00 C 541.35 865.59 538.10 878.52 524.00 880.00
C 524.63 843.08 522.71 805.51 525.00 769.00 C 523.52 754.60 544.32 763.77 552.78 758.78 C 587.23 746.72 619.98 728.59 649.25 706.25 C 654.57 700.83 667.41 695.79 664.97 687.03 C 661.63 674.54 649.10 679.55 643.75 687.75 C 604.88 715.04 563.74 746.86 513.00 743.00 C 495.55 738.48 503.85 760.01 502.00 770.00 C 502.00 807.00 502.00 844.00 502.00 881.00
C 491.40 877.83 478.07 873.38 482.00 859.00 C 482.00 845.00 482.00 831.00 482.00 817.00 C 484.74 805.03 475.15 792.21 482.25 782.25 C 501.43 764.81 477.77 732.46 455.23 744.23 C 432.41 753.68 440.26 787.70 463.00 791.00
C 466.79 813.56 464.28 837.67 465.00 861.00
C 439.55 859.78 454.57 829.78 448.00 814.00 C 445.30 797.43 437.24 782.18 427.30 768.70 C 417.63 756.07 404.79 740.53 387.00 743.00 C 343.00 743.00 299.00 743.00 255.00 743.00
M 706.00 658.00 
C 717.40 662.93 711.55 683.16 698.78 677.22 C 686.66 672.75 693.77 654.42 706.00 658.00
M 468.00 756.00 
C 479.21 759.33 475.91 778.92 463.00 776.00 C 451.20 773.11 455.36 752.68 468.00 756.00
M 394.00 819.00 
C 365.91 801.69 337.32 781.80 314.00 758.00
C 327.91 756.82 341.44 757.16 350.70 768.30 C 366.25 783.75 392.43 794.41 394.00 819.00
M 433.00 844.00 
C 425.77 839.19 412.72 836.92 413.01 825.99 C 414.69 794.51 385.94 776.29 366.00 758.00
C 388.00 752.88 405.81 765.43 416.75 783.25 C 428.96 800.97 433.73 822.09 433.00 844.00 Z"/>
</g>
<g fill="None" fill-opacity="0.0" stroke="#00367C" stroke-opacity="1.00" stroke-width="0.3"><path d="
M 484.00 177.00 
C 481.36 167.57 491.09 145.27 475.00 148.00 C 462.75 148.14 450.45 147.71 438.22 148.22 C 408.45 149.49 391.23 176.73 379.92 200.92 C 374.49 221.07 358.38 235.58 336.00 231.00
C 336.36 217.66 337.55 195.52 318.00 199.00 C 301.59 199.01 285.06 198.63 269.00 200.00 C 248.01 194.32 250.06 217.30 251.00 231.00
C 207.74 223.02 168.38 259.90 170.33 302.33 C 169.56 377.73 170.22 453.47 170.00 529.00 C 171.66 578.12 166.39 628.90 173.22 676.78 C 183.91 723.27 236.27 728.59 277.00 724.00 C 352.67 724.00 428.33 724.00 504.00 724.00 C 526.43 724.47 549.90 726.01 567.92 711.92 C 583.69 701.25 592.50 683.40 598.02 666.02 C 598.93 645.05 622.58 641.70 634.25 627.25 C 695.52 571.97 708.95 475.31 669.30 404.70 C 622.41 314.53 495.56 283.79 412.75 340.75 C 397.92 360.45 373.70 352.79 352.00 354.00 C 301.67 354.00 251.33 354.00 201.00 354.00
C 204.25 326.79 192.81 294.10 210.75 271.75 C 232.34 252.52 265.02 264.24 292.00 261.00 C 320.41 259.22 351.29 265.97 376.92 253.92 C 397.43 242.67 403.09 218.05 414.70 199.70 C 424.58 170.40 459.14 177.65 484.00 177.00
M 519.00 333.00 
C 602.37 336.45 675.80 415.02 670.00 500.00 C 668.61 584.15 590.58 659.06 505.33 652.67 C 419.87 652.38 347.92 570.96 354.00 486.00 C 355.40 401.54 434.85 329.27 519.00 333.00
M 368.00 384.00 
C 322.72 444.92 319.58 536.27 364.75 598.25 C 408.11 662.93 492.83 687.81 566.00 667.00
C 558.51 701.62 517.08 696.24 489.00 696.00 C 418.38 695.46 347.21 697.16 277.00 695.00 C 249.01 695.49 206.18 701.36 201.22 664.78 C 199.81 630.92 198.09 594.04 202.00 561.00
C 212.23 597.00 223.08 633.20 241.92 666.08 C 245.23 678.44 257.11 677.91 268.00 677.00
C 248.47 641.52 228.86 604.79 221.67 564.33 C 218.91 554.09 218.88 542.60 212.23 533.77 C 202.60 527.05 198.65 517.10 201.00 505.00
C 220.66 501.20 233.79 517.92 232.98 536.02 C 234.97 554.11 238.44 571.88 244.00 589.00
C 254.09 591.70 263.84 584.15 257.68 574.32 C 246.88 549.45 256.04 515.30 233.75 496.25 C 226.08 490.54 216.51 489.20 207.00 489.00 C 195.18 492.00 197.45 466.48 210.00 473.00 C 220.95 473.58 232.53 471.81 243.07 473.93 C 257.10 485.67 283.71 479.50 283.99 458.99 C 287.06 439.45 261.41 425.81 246.75 438.75 C 237.20 442.52 241.79 458.16 232.00 458.00 C 221.73 456.66 208.53 460.71 200.08 455.92 C 194.87 440.09 210.47 442.59 221.00 443.00 C 231.50 445.59 242.09 440.82 238.00 429.00
C 229.79 425.89 220.61 427.50 212.00 427.00 C 202.24 431.06 195.44 421.03 202.08 414.08 C 229.00 413.11 255.16 415.52 282.00 415.00
C 282.65 423.50 285.42 432.97 293.70 437.30 C 304.32 442.66 295.78 455.91 297.00 465.00 C 287.74 540.96 315.53 616.67 375.75 664.25 C 383.44 667.80 387.75 677.97 397.01 677.99 C 407.22 676.51 421.00 679.00 429.00 675.00
C 344.55 640.67 300.42 544.13 314.33 455.33 C 311.65 438.85 332.32 431.61 329.67 415.33 C 324.38 384.39 291.13 400.60 270.00 399.00 C 251.33 399.00 232.67 399.00 214.00 399.00 C 202.04 402.33 197.34 395.22 200.00 384.00
C 256.00 384.00 312.00 384.00 368.00 384.00
M 310.00 408.00 
C 321.06 412.80 315.59 431.38 303.33 427.67 C 291.29 423.46 297.25 404.01 310.00 408.00
M 264.00 447.00 
C 275.73 451.21 270.81 470.06 258.78 466.22 C 245.73 463.92 250.88 442.80 264.00 447.00 Z"/>
</g>
<g fill="None" fill-opacity="0.0" stroke="#00367C" stroke-opacity="1.00" stroke-width="0.3"><path d="
M 592.00 186.00 
C 592.80 179.22 600.21 168.84 593.22 163.78 C 576.45 160.58 559.62 157.02 542.00 157.00
C 542.14 164.41 539.38 174.27 544.33 179.67 C 560.51 180.71 575.88 184.87 592.00 186.00 Z"/>
</g>
<g fill="None" fill-opacity="0.0" stroke="#00367C" stroke-opacity="1.00" stroke-width="0.3"><path d="
M 747.00 306.00 
C 727.08 274.77 694.25 251.53 662.69 233.31 C 651.32 219.81 636.03 248.07 651.30 251.70 C 672.96 263.40 693.82 278.05 711.25 295.75 C 718.51 310.82 733.40 309.65 747.00 306.00 Z"/>
</g>
<g fill="None" fill-opacity="0.0" stroke="#00367C" stroke-opacity="1.00" stroke-width="0.3"><path d="
M 700.00 341.00 
C 700.92 333.11 711.97 325.68 706.75 318.25 C 664.97 274.44 610.93 244.96 552.00 238.00 C 538.82 232.75 540.67 248.57 542.00 257.00
C 603.02 263.56 658.35 294.71 700.00 341.00 Z"/>
</g>
<g fill="None" fill-opacity="0.0" stroke="#00367C" stroke-opacity="1.00" stroke-width="0.3"><path d="
M 271.00 294.00 
C 260.71 294.04 241.73 290.49 246.00 307.00 C 241.10 323.39 257.57 323.32 268.99 321.99 C 278.81 319.04 274.90 300.28 271.00 294.00 Z"/>
</g>
<g fill="None" fill-opacity="0.0" stroke="#00367C" stroke-opacity="1.00" stroke-width="0.3"><path d="
M 755.00 321.00 
C 726.82 315.61 702.41 347.50 715.08 372.92 C 723.66 398.22 761.63 403.22 777.25 381.25 C 794.85 360.56 781.06 325.64 755.00 321.00
M 752.00 338.00 
C 775.71 342.87 770.10 382.28 745.98 378.02 C 720.29 376.38 726.14 332.89 752.00 338.00 Z"/>
</g>
<g fill="None" fill-opacity="0.0" stroke="#F7FDFD" stroke-opacity="1.00" stroke-width="0.3"><path d="
M 519.00 333.00 
C 434.85 329.27 355.40 401.54 354.00 486.00 C 347.92 570.96 419.87 652.38 505.33 652.67 C 590.58 659.06 668.61 584.15 670.00 500.00 C 675.80 415.02 602.37 336.45 519.00 333.00
M 528.00 358.00 
C 598.34 366.06 656.36 437.00 645.07 509.07 C 639.88 580.79 567.73 639.17 496.00 629.00 C 424.53 621.76 368.73 550.51 378.00 479.00 C 384.59 407.25 454.56 348.50 528.00 358.00 Z"/>
</g>
<g fill="None" fill-opacity="0.0" stroke="#F7FDFD" stroke-opacity="1.00" stroke-width="0.3"><path d="
M 752.00 338.00 
C 726.14 332.89 720.29 376.38 745.98 378.02 C 770.10 382.28 775.71 342.87 752.00 338.00 Z"/>
</g>
<g fill="None" fill-opacity="0.0" stroke="#00367C" stroke-opacity="1.00" stroke-width="0.3"><path d="
M 528.00 358.00 
C 454.56 348.50 384.59 407.25 378.00 479.00 C 368.73 550.51 424.53 621.76 496.00 629.00 C 567.73 639.17 639.88 580.79 645.07 509.07 C 656.36 437.00 598.34 366.06 528.00 358.00
M 538.00 441.00 
C 500.97 433.61 463.75 426.55 427.00 418.00
C 448.64 392.55 481.33 376.86 513.74 379.26 C 521.99 399.80 530.85 420.08 538.00 441.00
M 573.00 490.00 
C 560.88 453.20 546.24 417.37 533.00 381.00
C 565.16 385.12 595.25 409.64 611.77 438.23 C 615.16 449.35 600.36 456.32 595.25 465.25 C 587.65 473.23 581.69 483.62 573.00 490.00
M 475.00 445.00 
C 452.75 473.41 426.46 501.81 403.00 529.00
C 393.59 497.52 396.45 460.26 415.00 433.00
C 435.17 436.28 454.73 441.96 475.00 445.00
M 546.00 548.00 
C 570.90 520.14 595.07 490.59 620.08 463.08 C 628.94 483.32 625.37 510.14 619.07 531.07 C 615.76 540.49 611.67 549.73 606.23 558.23 C 600.07 568.44 586.81 557.16 577.93 556.07 C 567.29 553.35 556.69 550.62 546.00 548.00
M 452.00 500.00 
C 460.52 535.62 475.73 569.35 484.00 605.00
C 453.70 598.29 424.25 576.03 412.01 546.99 C 424.35 531.17 436.66 513.00 452.00 500.00
M 588.00 577.00 
C 568.05 601.54 534.81 609.20 504.00 609.00
C 498.30 588.54 490.49 568.59 485.00 548.00
C 518.99 558.64 553.89 566.58 588.00 577.00 Z"/>
</g>
<g fill="None" fill-opacity="0.0" stroke="#F7FDFD" stroke-opacity="1.00" stroke-width="0.3"><path d="
M 538.00 441.00 
C 530.85 420.08 521.99 399.80 513.74 379.26 C 481.33 376.86 448.64 392.55 427.00 418.00
C 463.75 426.55 500.97 433.61 538.00 441.00 Z"/>
</g>
<g fill="None" fill-opacity="0.0" stroke="#F7FDFD" stroke-opacity="1.00" stroke-width="0.3"><path d="
M 573.00 490.00 
C 581.69 483.62 587.65 473.23 595.25 465.25 C 600.36 456.32 615.16 449.35 611.77 438.23 C 595.25 409.64 565.16 385.12 533.00 381.00
C 546.24 417.37 560.88 453.20 573.00 490.00 Z"/>
</g>
<g fill="None" fill-opacity="0.0" stroke="#F7FDFD" stroke-opacity="1.00" stroke-width="0.3"><path d="
M 368.00 384.00 
C 312.00 384.00 256.00 384.00 200.00 384.00
C 197.34 395.22 202.04 402.33 214.00 399.00 C 232.67 399.00 251.33 399.00 270.00 399.00 C 291.13 400.60 324.38 384.39 329.67 415.33 C 332.32 431.61 311.65 438.85 314.33 455.33 C 300.42 544.13 344.55 640.67 429.00 675.00
C 421.00 679.00 407.22 676.51 397.01 677.99 C 387.75 677.97 383.44 667.80 375.75 664.25 C 315.53 616.67 287.74 540.96 297.00 465.00 C 295.78 455.91 304.32 442.66 293.70 437.30 C 285.42 432.97 282.65 423.50 282.00 415.00
C 255.16 415.52 229.00 413.11 202.08 414.08 C 195.44 421.03 202.24 431.06 212.00 427.00 C 220.61 427.50 229.79 425.89 238.00 428.00
C 242.09 440.82 231.50 445.59 221.00 443.00 C 210.47 442.59 194.87 440.09 200.08 455.92 C 208.53 460.71 221.73 456.66 232.00 458.00 C 241.79 458.16 237.20 442.52 246.75 438.75 C 261.41 425.81 287.06 439.45 283.99 458.99 C 283.71 479.50 257.10 485.67 243.07 473.93 C 232.53 471.81 220.95 473.58 210.00 473.00 C 197.45 466.48 195.18 492.00 207.00 489.00 C 216.51 489.20 226.08 490.54 233.75 496.25 C 256.04 515.30 246.88 549.45 257.68 574.32 C 263.84 584.15 254.09 591.70 244.00 589.00
C 238.44 571.88 234.97 554.11 232.98 536.02 C 233.79 517.92 220.66 501.20 201.00 505.00
C 198.65 517.10 202.60 527.05 212.23 533.77 C 218.88 542.60 218.91 554.09 221.67 564.33 C 228.86 604.79 248.47 641.52 268.00 677.00
C 257.11 677.91 245.23 678.44 241.92 666.08 C 223.08 633.20 212.23 597.00 202.00 561.00
C 198.09 594.04 199.81 630.92 201.22 664.78 C 206.18 701.36 249.01 695.49 277.00 695.00 C 347.21 697.16 418.38 695.46 489.00 696.00 C 517.08 696.24 558.51 701.62 566.00 667.00
C 492.83 687.81 408.11 662.93 364.75 598.25 C 319.58 536.27 322.72 444.92 368.00 384.00
M 276.00 490.00 
C 283.08 499.82 278.30 513.85 281.98 525.02 C 284.36 547.83 291.03 569.57 299.32 590.68 C 302.65 600.31 311.47 609.24 311.22 619.22 C 305.19 630.91 290.67 624.83 290.03 612.98 C 273.81 582.99 264.89 550.10 262.00 516.00 C 260.13 504.14 257.76 485.45 276.00 490.00
M 267.00 599.00 
C 275.37 616.64 282.83 635.91 294.00 652.00
C 298.18 625.78 340.06 628.39 341.33 654.67 C 342.94 666.19 359.78 668.15 362.00 678.00
C 351.33 678.58 339.80 678.12 330.92 674.94 C 303.50 688.58 275.09 665.44 266.08 639.92 C 261.65 632.06 258.21 623.79 254.23 615.77 C 246.91 606.61 256.42 596.41 267.00 599.00 Z"/>
</g>
<g fill="None" fill-opacity="0.0" stroke="#00367C" stroke-opacity="1.00" stroke-width="0.3"><path d="
M 791.00 390.00 
C 780.78 397.90 770.11 408.06 777.67 421.33 C 783.66 450.70 784.18 482.40 782.00 513.00 C 774.31 529.11 802.58 539.03 803.02 521.02 C 807.52 476.99 805.14 430.80 791.00 390.00 Z"/>
</g>
<g fill="None" fill-opacity="0.0" stroke="#F7FDFD" stroke-opacity="1.00" stroke-width="0.3"><path d="
M 310.00 408.00 
C 297.25 404.01 291.29 423.46 303.33 427.67 C 315.59 431.38 321.06 412.80 310.00 408.00 Z"/>
</g>
<g fill="None" fill-opacity="0.0" stroke="#F7FDFD" stroke-opacity="1.00" stroke-width="0.3"><path d="
M 475.00 445.00 
C 454.73 441.96 435.17 436.28 415.00 433.00
C 396.45 460.26 393.59 497.52 403.00 529.00
C 426.46 501.81 452.75 473.41 475.00 445.00 Z"/>
</g>
<g fill="None" fill-opacity="0.0" stroke="#F7FDFD" stroke-opacity="1.00" stroke-width="0.3"><path d="
M 264.00 447.00 
C 250.88 442.80 245.73 463.92 258.78 466.22 C 270.81 470.06 275.73 451.21 264.00 447.00 Z"/>
</g>
<g fill="None" fill-opacity="0.0" stroke="#F7FDFD" stroke-opacity="1.00" stroke-width="0.3"><path d="
M 546.00 548.00 
C 556.69 550.62 567.29 553.35 577.93 556.07 C 586.81 557.16 600.07 568.44 606.23 558.23 C 611.67 549.73 615.76 540.49 619.07 531.07 C 625.37 510.14 628.94 483.32 620.08 463.08 C 595.07 490.59 570.90 520.14 546.00 548.00 Z"/>
</g>
<g fill="None" fill-opacity="0.0" stroke="#00367C" stroke-opacity="1.00" stroke-width="0.3"><path d="
M 276.00 490.00 
C 257.76 485.45 260.13 504.14 262.00 516.00 C 264.89 550.10 273.81 582.99 290.03 612.98 C 290.67 624.83 305.19 630.91 311.22 619.22 C 311.47 609.24 302.65 600.31 299.32 590.68 C 291.03 569.57 284.36 547.83 281.98 525.02 C 278.30 513.85 283.08 499.82 276.00 490.00 Z"/>
</g>
<g fill="None" fill-opacity="0.0" stroke="#F7FDFD" stroke-opacity="1.00" stroke-width="0.3"><path d="
M 452.00 500.00 
C 436.66 513.00 424.35 531.17 412.01 546.99 C 424.25 576.03 453.70 598.29 484.00 605.00
C 475.73 569.35 460.52 535.62 452.00 500.00 Z"/>
</g>
<g fill="None" fill-opacity="0.0" stroke="#F7FDFD" stroke-opacity="1.00" stroke-width="0.3"><path d="
M 588.00 577.00 
C 553.89 566.58 518.99 558.64 485.00 548.00
C 490.49 568.59 498.30 588.54 504.00 609.00
C 534.81 609.20 568.05 601.54 588.00 577.00 Z"/>
</g>
<g fill="None" fill-opacity="0.0" stroke="#00367C" stroke-opacity="1.00" stroke-width="0.3"><path d="
M 609.00 692.00 
C 641.01 676.09 669.39 649.61 689.70 619.70 C 694.30 609.52 709.45 596.89 700.69 586.31 C 686.34 575.68 683.70 598.31 675.92 605.92 C 663.57 626.24 645.75 644.09 626.70 658.70 C 613.51 664.64 612.67 680.09 609.00 692.00 Z"/>
</g>
<g fill="None" fill-opacity="0.0" stroke="#00367C" stroke-opacity="1.00" stroke-width="0.3"><path d="
M 267.00 599.00 
C 256.42 596.41 246.91 606.61 254.23 615.77 C 258.21 623.79 261.65 632.06 266.08 639.92 C 275.09 665.44 303.50 688.58 330.92 674.94 C 339.80 678.12 351.33 678.58 362.00 678.00
C 359.78 668.15 342.94 666.19 341.33 654.67 C 340.06 628.39 298.18 625.78 294.00 652.00
C 282.83 635.91 275.37 616.64 267.00 599.00
M 318.00 647.00 
C 330.03 647.92 329.51 667.78 316.78 667.78 C 304.16 667.01 305.94 646.48 318.00 647.00 Z"/>
</g>
<g fill="None" fill-opacity="0.0" stroke="#F7FDFD" stroke-opacity="1.00" stroke-width="0.3"><path d="
M 318.00 647.00 
C 305.94 646.48 304.16 667.01 316.78 667.78 C 329.51 667.78 330.03 647.92 318.00 647.00 Z"/>
</g>
<g fill="None" fill-opacity="0.0" stroke="#F7FDFD" stroke-opacity="1.00" stroke-width="0.3"><path d="
M 706.00 658.00 
C 693.77 654.42 686.66 672.75 698.78 677.22 C 711.55 683.16 717.40 662.93 706.00 658.00 Z"/>
</g>
<g fill="None" fill-opacity="0.0" stroke="#F7FDFD" stroke-opacity="1.00" stroke-width="0.3"><path d="
M 468.00 756.00 
C 455.36 752.68 451.20 773.11 463.00 776.00 C 475.91 778.92 479.21 759.33 468.00 756.00 Z"/>
</g>
<g fill="None" fill-opacity="0.0" stroke="#F7FDFD" stroke-opacity="1.00" stroke-width="0.3"><path d="
M 394.00 819.00 
C 392.43 794.41 366.25 783.75 350.70 768.30 C 341.44 757.16 327.91 756.82 314.00 758.00
C 337.32 781.80 365.91 801.69 394.00 819.00 Z"/>
</g>
<g fill="None" fill-opacity="0.0" stroke="#F7FDFD" stroke-opacity="1.00" stroke-width="0.3"><path d="
M 433.00 844.00 
C 433.73 822.09 428.96 800.97 416.75 783.25 C 405.81 765.43 388.00 752.88 366.00 758.00
C 385.94 776.29 414.69 794.51 413.01 825.99 C 412.72 836.92 425.77 839.19 433.00 844.00 Z"/>
</g>
<g fill="#F7FDFD" fill-opacity="1.00" stroke="None">
<path d="
M 0.00 1024.00 
L 1024.00 1024.00
L 1024.00 0.00
L 0.00 0.00
L 0.00 1024.00
M 255.00 743.00 
C 299.00 743.00 343.00 743.00 387.00 743.00 C 404.79 740.53 417.63 756.07 427.30 768.70 C 437.24 782.18 445.30 797.43 448.00 814.00 C 454.57 829.78 439.55 859.78 465.00 861.00
C 464.28 837.67 466.79 813.56 463.00 791.00
C 440.26 787.70 432.41 753.68 455.23 744.23 C 477.77 732.46 501.43 764.81 482.25 782.25 C 475.15 792.21 484.74 805.03 482.00 817.00 C 482.00 831.00 482.00 845.00 482.00 859.00 C 478.07 873.38 491.40 877.83 502.00 881.00
C 502.00 844.00 502.00 807.00 502.00 770.00 C 503.85 760.01 495.55 738.48 513.00 743.00 C 563.74 746.86 604.88 715.04 643.75 687.75 C 649.10 679.55 661.63 674.54 664.97 687.03 C 667.41 695.79 654.57 700.83 649.25 706.25 C 619.98 728.59 587.23 746.72 552.78 758.78 C 544.32 763.77 523.52 754.60 525.00 769.00 C 522.71 805.51 524.63 843.08 524.00 880.00
C 538.10 878.52 541.35 865.59 539.00 853.00 C 540.88 828.67 532.42 799.82 551.25 781.25 C 575.97 762.45 607.75 755.98 632.25 736.25 C 648.74 724.96 664.99 713.16 679.25 698.25 C 690.10 689.21 679.30 679.41 678.01 668.99 C 675.09 643.89 713.97 633.87 723.92 657.08 C 729.60 666.69 726.58 679.69 717.75 686.75 C 708.23 691.88 696.92 692.83 694.70 705.70 C 661.41 745.63 614.11 768.79 569.25 791.25 C 549.16 808.75 557.86 838.31 557.00 862.00
C 567.77 857.43 579.61 851.16 575.00 836.00 C 571.18 796.18 616.97 788.35 641.23 769.23 C 675.89 747.17 709.20 719.32 735.25 686.25 C 741.09 677.34 750.82 667.56 747.02 655.98 C 744.35 645.19 731.45 635.30 739.31 623.31 C 743.58 613.10 748.53 603.11 752.92 592.92 C 753.96 582.53 766.13 569.88 757.25 560.75 C 730.78 545.37 749.89 513.80 747.00 490.00 C 748.64 462.40 741.85 436.95 737.00 411.00
C 753.47 406.24 762.26 416.87 761.99 432.01 C 767.46 459.16 768.85 489.12 765.07 517.07 C 763.08 529.52 760.66 542.68 773.75 550.25 C 786.54 557.64 778.92 573.25 776.07 584.07 C 771.55 605.52 745.73 626.99 763.92 648.08 C 774.75 683.14 736.88 708.05 717.25 733.25 C 684.26 763.49 647.88 788.61 608.92 808.92 C 597.94 815.24 592.69 827.77 593.00 840.00
C 646.08 811.30 694.66 773.16 739.75 730.75 C 786.92 684.69 825.26 624.75 821.00 558.00
C 809.71 576.06 807.38 598.00 798.07 617.07 C 792.93 624.04 792.03 641.01 780.93 639.07 C 766.84 635.62 775.74 620.72 779.78 612.78 C 796.05 587.55 789.99 544.46 823.00 533.00
C 827.41 451.38 819.52 370.06 772.75 304.25 C 734.64 246.09 672.73 207.51 608.00 190.00
C 607.84 182.53 610.74 175.81 613.00 169.00
C 706.19 188.96 789.69 262.21 823.00 352.00
C 825.33 318.90 823.33 283.85 824.00 250.00 C 822.53 237.75 805.57 233.84 796.77 226.23 C 713.98 176.29 621.33 146.06 525.00 136.00
C 526.75 155.85 526.45 177.14 525.00 197.00
C 560.21 199.10 594.76 204.54 627.22 216.78 C 641.33 217.41 635.01 236.07 627.30 239.64 C 594.22 229.23 560.81 219.33 525.00 219.00
C 525.00 237.00 525.00 255.00 525.00 273.00
C 655.17 274.01 757.26 411.08 725.22 537.22 C 723.28 547.14 718.05 560.05 730.75 565.25 C 752.59 577.93 731.07 602.61 726.23 619.23 C 724.53 628.24 715.87 640.52 706.31 631.70 C 697.36 623.44 710.10 613.17 712.92 604.92 C 715.55 596.64 726.88 584.87 718.25 577.75 C 711.71 572.05 697.15 569.23 700.98 557.98 C 731.13 467.97 692.37 360.55 606.77 316.23 C 577.74 300.82 545.76 291.89 512.00 292.00 C 494.86 295.63 504.46 272.84 502.00 263.00 C 502.00 210.00 502.00 157.00 502.00 104.00
C 614.47 111.75 722.67 145.17 818.23 203.77 C 829.96 214.67 854.98 218.56 854.00 238.00 C 854.78 351.72 857.67 468.07 852.00 581.00 C 835.82 720.81 703.53 809.66 592.92 876.92 C 578.30 885.90 563.46 894.30 548.31 902.31 C 532.73 907.31 516.94 926.36 500.31 914.70 C 425.39 877.73 353.98 833.49 289.75 778.25 C 278.11 767.20 262.94 756.77 255.00 743.00
M 484.00 177.00 
C 459.14 177.65 424.58 170.40 414.70 199.70 C 403.09 218.05 397.43 242.67 376.92 253.92 C 351.29 265.97 320.41 259.22 292.00 261.00 C 265.02 264.24 232.34 252.52 210.75 271.75 C 192.81 294.10 204.25 326.79 201.00 354.00
C 251.33 354.00 301.67 354.00 352.00 354.00 C 373.70 352.79 397.92 360.45 412.75 340.75 C 495.56 283.79 622.41 314.53 669.30 404.70 C 708.95 475.31 695.52 571.97 634.25 627.25 C 622.58 641.70 598.93 645.05 598.02 666.02 C 592.50 683.40 583.69 701.25 567.92 711.92 C 549.90 726.01 526.43 724.47 504.00 724.00 C 428.33 724.00 352.67 724.00 277.00 724.00 C 236.27 728.59 183.91 723.27 173.22 676.78 C 166.39 628.90 171.66 578.12 170.00 529.00 C 170.22 453.47 169.56 377.73 170.33 302.33 C 168.38 259.90 207.74 223.02 251.00 231.00
C 250.06 217.30 248.01 194.32 269.00 200.00 C 285.06 198.63 301.59 199.01 318.00 199.00 C 337.55 195.52 336.36 217.66 336.00 231.00
C 358.38 235.58 374.49 221.07 379.92 200.92 C 391.23 176.73 408.45 149.49 438.22 148.22 C 450.45 147.71 462.75 148.14 475.00 148.00 C 491.09 145.27 481.36 167.57 484.00 177.00
M 592.00 186.00 
C 575.88 184.87 560.51 180.71 544.33 179.67 C 539.38 174.27 542.14 164.41 542.00 157.00
C 559.62 157.02 576.45 160.58 593.22 163.78 C 600.21 168.84 592.80 179.22 592.00 186.00
M 747.00 306.00 
C 733.40 309.65 718.51 310.82 711.25 295.75 C 693.82 278.05 672.96 263.40 651.30 251.70 C 636.03 248.07 651.32 219.81 662.69 233.31 C 694.25 251.53 727.08 274.77 747.00 306.00
M 700.00 341.00 
C 658.35 294.71 603.02 263.56 542.00 257.00
C 540.67 248.57 538.82 232.75 552.00 238.00 C 610.93 244.96 664.97 274.44 706.75 318.25 C 711.97 325.68 700.92 333.11 700.00 341.00
M 271.00 294.00 
C 274.90 300.28 278.81 319.04 268.99 321.99 C 257.57 323.32 241.10 323.39 246.00 307.00 C 241.73 290.49 260.71 294.04 271.00 294.00
M 755.00 321.00 
C 781.06 325.64 794.85 360.56 777.25 381.25 C 761.63 403.22 723.66 398.22 715.08 372.92 C 702.41 347.50 726.82 315.61 755.00 321.00
M 791.00 390.00 
C 805.14 430.80 807.52 476.99 803.02 521.02 C 802.58 539.03 774.31 529.11 782.00 513.00 C 784.18 482.40 783.66 450.70 777.67 421.33 C 770.11 408.06 780.78 397.90 791.00 390.00
M 609.00 692.00 
C 612.67 680.09 613.51 664.64 626.70 658.70 C 645.75 644.09 663.57 626.24 675.92 605.92 C 683.70 598.31 686.34 575.68 700.69 586.31 C 709.45 596.89 694.30 609.52 689.70 619.70 C 669.39 649.61 641.01 676.09 609.00 692.00 Z"/>
</g>
<g fill="#00367C" fill-opacity="1.00" stroke="None">
<path d="
M 255.00 743.00 
C 262.94 756.77 278.11 767.20 289.75 778.25 C 353.98 833.49 425.39 877.73 500.31 914.70 C 516.94 926.36 532.73 907.31 548.31 902.31 C 563.46 894.30 578.30 885.90 592.92 876.92 C 703.53 809.66 835.82 720.81 852.00 581.00 C 857.67 468.07 854.78 351.72 854.00 238.00 C 854.98 218.56 829.96 214.67 818.23 203.77 C 722.67 145.17 614.47 111.75 502.00 104.00
C 502.00 157.00 502.00 210.00 502.00 263.00 C 504.46 272.84 494.86 295.63 512.00 292.00 C 545.76 291.89 577.74 300.82 606.77 316.23 C 692.37 360.55 731.13 467.97 700.98 557.98 C 697.15 569.23 711.71 572.05 718.25 577.75 C 726.88 584.87 715.55 596.64 712.92 604.92 C 710.10 613.17 697.36 623.44 706.31 631.70 C 715.87 640.52 724.53 628.24 726.23 619.23 C 731.07 602.61 752.59 577.93 730.75 565.25 C 718.05 560.05 723.28 547.14 725.22 537.22 C 757.26 411.08 655.17 274.01 525.00 273.00
C 525.00 255.00 525.00 237.00 525.00 219.00
C 560.81 219.33 594.22 229.23 627.30 239.64 C 635.01 236.07 641.33 217.41 627.22 216.78 C 594.76 204.54 560.21 199.10 525.00 197.00
C 526.45 177.14 526.75 155.85 525.00 136.00
C 621.33 146.06 713.98 176.29 796.77 226.23 C 805.57 233.84 822.53 237.75 824.00 250.00 C 823.33 283.85 825.33 318.90 823.00 352.00
C 789.69 262.21 706.19 188.96 613.00 169.00
C 610.74 175.81 607.84 182.53 608.00 190.00
C 672.73 207.51 734.64 246.09 772.75 304.25 C 819.52 370.06 827.41 451.38 823.00 533.00
C 789.99 544.46 796.05 587.55 779.78 612.78 C 775.74 620.72 766.84 635.62 780.93 639.07 C 792.03 641.01 792.93 624.04 798.07 617.07 C 807.38 598.00 809.71 576.06 821.00 558.00
C 825.26 624.75 786.92 684.69 739.75 730.75 C 694.66 773.16 646.08 811.30 593.00 840.00
C 592.69 827.77 597.94 815.24 608.92 808.92 C 647.88 788.61 684.26 763.49 717.25 733.25 C 736.88 708.05 774.75 683.14 763.92 648.08 C 745.73 626.99 771.55 605.52 776.07 584.07 C 778.92 573.25 786.54 557.64 773.75 550.25 C 760.66 542.68 763.08 529.52 765.07 517.07 C 768.85 489.12 767.46 459.16 761.99 432.01 C 762.26 416.87 753.47 406.24 737.00 411.00
C 741.85 436.95 748.64 462.40 747.00 490.00 C 749.89 513.80 730.78 545.37 757.25 560.75 C 766.13 569.88 753.96 582.53 752.92 592.92 C 748.53 603.11 743.58 613.10 739.31 623.31 C 731.45 635.30 744.35 645.19 747.02 655.98 C 750.82 667.56 741.09 677.34 735.25 686.25 C 709.20 719.32 675.89 747.17 641.23 769.23 C 616.97 788.35 571.18 796.18 575.00 836.00 C 579.61 851.16 567.77 857.43 557.00 862.00
C 557.86 838.31 549.16 808.75 569.25 791.25 C 614.11 768.79 661.41 745.63 694.70 705.70 C 696.92 692.83 708.23 691.88 717.75 686.75 C 726.58 679.69 729.60 666.69 723.92 657.08 C 713.97 633.87 675.09 643.89 678.01 668.99 C 679.30 679.41 690.10 689.21 679.25 698.25 C 664.99 713.16 648.74 724.96 632.25 736.25 C 607.75 755.98 575.97 762.45 551.25 781.25 C 532.42 799.82 540.88 828.67 539.00 853.00 C 541.35 865.59 538.10 878.52 524.00 880.00
C 524.63 843.08 522.71 805.51 525.00 769.00 C 523.52 754.60 544.32 763.77 552.78 758.78 C 587.23 746.72 619.98 728.59 649.25 706.25 C 654.57 700.83 667.41 695.79 664.97 687.03 C 661.63 674.54 649.10 679.55 643.75 687.75 C 604.88 715.04 563.74 746.86 513.00 743.00 C 495.55 738.48 503.85 760.01 502.00 770.00 C 502.00 807.00 502.00 844.00 502.00 881.00
C 491.40 877.83 478.07 873.38 482.00 859.00 C 482.00 845.00 482.00 831.00 482.00 817.00 C 484.74 805.03 475.15 792.21 482.25 782.25 C 501.43 764.81 477.77 732.46 455.23 744.23 C 432.41 753.68 440.26 787.70 463.00 791.00
C 466.79 813.56 464.28 837.67 465.00 861.00
C 439.55 859.78 454.57 829.78 448.00 814.00 C 445.30 797.43 437.24 782.18 427.30 768.70 C 417.63 756.07 404.79 740.53 387.00 743.00 C 343.00 743.00 299.00 743.00 255.00 743.00
M 706.00 658.00 
C 717.40 662.93 711.55 683.16 698.78 677.22 C 686.66 672.75 693.77 654.42 706.00 658.00
M 468.00 756.00 
C 479.21 759.33 475.91 778.92 463.00 776.00 C 451.20 773.11 455.36 752.68 468.00 756.00
M 394.00 819.00 
C 365.91 801.69 337.32 781.80 314.00 758.00
C 327.91 756.82 341.44 757.16 350.70 768.30 C 366.25 783.75 392.43 794.41 394.00 819.00
M 433.00 844.00 
C 425.77 839.19 412.72 836.92 413.01 825.99 C 414.69 794.51 385.94 776.29 366.00 758.00
C 388.00 752.88 405.81 765.43 416.75 783.25 C 428.96 800.97 433.73 822.09 433.00 844.00 Z"/>
</g>
<g fill="#00367C" fill-opacity="1.00" stroke="None">
<path d="
M 484.00 177.00 
C 481.36 167.57 491.09 145.27 475.00 148.00 C 462.75 148.14 450.45 147.71 438.22 148.22 C 408.45 149.49 391.23 176.73 379.92 200.92 C 374.49 221.07 358.38 235.58 336.00 231.00
C 336.36 217.66 337.55 195.52 318.00 199.00 C 301.59 199.01 285.06 198.63 269.00 200.00 C 248.01 194.32 250.06 217.30 251.00 231.00
C 207.74 223.02 168.38 259.90 170.33 302.33 C 169.56 377.73 170.22 453.47 170.00 529.00 C 171.66 578.12 166.39 628.90 173.22 676.78 C 183.91 723.27 236.27 728.59 277.00 724.00 C 352.67 724.00 428.33 724.00 504.00 724.00 C 526.43 724.47 549.90 726.01 567.92 711.92 C 583.69 701.25 592.50 683.40 598.02 666.02 C 598.93 645.05 622.58 641.70 634.25 627.25 C 695.52 571.97 708.95 475.31 669.30 404.70 C 622.41 314.53 495.56 283.79 412.75 340.75 C 397.92 360.45 373.70 352.79 352.00 354.00 C 301.67 354.00 251.33 354.00 201.00 354.00
C 204.25 326.79 192.81 294.10 210.75 271.75 C 232.34 252.52 265.02 264.24 292.00 261.00 C 320.41 259.22 351.29 265.97 376.92 253.92 C 397.43 242.67 403.09 218.05 414.70 199.70 C 424.58 170.40 459.14 177.65 484.00 177.00
M 519.00 333.00 
C 602.37 336.45 675.80 415.02 670.00 500.00 C 668.61 584.15 590.58 659.06 505.33 652.67 C 419.87 652.38 347.92 570.96 354.00 486.00 C 355.40 401.54 434.85 329.27 519.00 333.00
M 368.00 384.00 
C 322.72 444.92 319.58 536.27 364.75 598.25 C 408.11 662.93 492.83 687.81 566.00 667.00
C 558.51 701.62 517.08 696.24 489.00 696.00 C 418.38 695.46 347.21 697.16 277.00 695.00 C 249.01 695.49 206.18 701.36 201.22 664.78 C 199.81 630.92 198.09 594.04 202.00 561.00
C 212.23 597.00 223.08 633.20 241.92 666.08 C 245.23 678.44 257.11 677.91 268.00 677.00
C 248.47 641.52 228.86 604.79 221.67 564.33 C 218.91 554.09 218.88 542.60 212.23 533.77 C 202.60 527.05 198.65 517.10 201.00 505.00
C 220.66 501.20 233.79 517.92 232.98 536.02 C 234.97 554.11 238.44 571.88 244.00 589.00
C 254.09 591.70 263.84 584.15 257.68 574.32 C 246.88 549.45 256.04 515.30 233.75 496.25 C 226.08 490.54 216.51 489.20 207.00 489.00 C 195.18 492.00 197.45 466.48 210.00 473.00 C 220.95 473.58 232.53 471.81 243.07 473.93 C 257.10 485.67 283.71 479.50 283.99 458.99 C 287.06 439.45 261.41 425.81 246.75 438.75 C 237.20 442.52 241.79 458.16 232.00 458.00 C 221.73 456.66 208.53 460.71 200.08 455.92 C 194.87 440.09 210.47 442.59 221.00 443.00 C 231.50 445.59 242.09 440.82 238.00 429.00
C 229.79 425.89 220.61 427.50 212.00 427.00 C 202.24 431.06 195.44 421.03 202.08 414.08 C 229.00 413.11 255.16 415.52 282.00 415.00
C 282.65 423.50 285.42 432.97 293.70 437.30 C 304.32 442.66 295.78 455.91 297.00 465.00 C 287.74 540.96 315.53 616.67 375.75 664.25 C 383.44 667.80 387.75 677.97 397.01 677.99 C 407.22 676.51 421.00 679.00 429.00 675.00
C 344.55 640.67 300.42 544.13 314.33 455.33 C 311.65 438.85 332.32 431.61 329.67 415.33 C 324.38 384.39 291.13 400.60 270.00 399.00 C 251.33 399.00 232.67 399.00 214.00 399.00 C 202.04 402.33 197.34 395.22 200.00 384.00
C 256.00 384.00 312.00 384.00 368.00 384.00
M 310.00 408.00 
C 321.06 412.80 315.59 431.38 303.33 427.67 C 291.29 423.46 297.25 404.01 310.00 408.00
M 264.00 447.00 
C 275.73 451.21 270.81 470.06 258.78 466.22 C 245.73 463.92 250.88 442.80 264.00 447.00 Z"/>
</g>
<g fill="#00367C" fill-opacity="1.00" stroke="None">
<path d="
M 592.00 186.00 
C 592.80 179.22 600.21 168.84 593.22 163.78 C 576.45 160.58 559.62 157.02 542.00 157.00
C 542.14 164.41 539.38 174.27 544.33 179.67 C 560.51 180.71 575.88 184.87 592.00 186.00 Z"/>
</g>
<g fill="#00367C" fill-opacity="1.00" stroke="None">
<path d="
M 747.00 306.00 
C 727.08 274.77 694.25 251.53 662.69 233.31 C 651.32 219.81 636.03 248.07 651.30 251.70 C 672.96 263.40 693.82 278.05 711.25 295.75 C 718.51 310.82 733.40 309.65 747.00 306.00 Z"/>
</g>
<g fill="#00367C" fill-opacity="1.00" stroke="None">
<path d="
M 700.00 341.00 
C 700.92 333.11 711.97 325.68 706.75 318.25 C 664.97 274.44 610.93 244.96 552.00 238.00 C 538.82 232.75 540.67 248.57 542.00 257.00
C 603.02 263.56 658.35 294.71 700.00 341.00 Z"/>
</g>
<g fill="#00367C" fill-opacity="1.00" stroke="None">
<path d="
M 271.00 294.00 
C 260.71 294.04 241.73 290.49 246.00 307.00 C 241.10 323.39 257.57 323.32 268.99 321.99 C 278.81 319.04 274.90 300.28 271.00 294.00 Z"/>
</g>
<g fill="#00367C" fill-opacity="1.00" stroke="None">
<path d="
M 755.00 321.00 
C 726.82 315.61 702.41 347.50 715.08 372.92 C 723.66 398.22 761.63 403.22 777.25 381.25 C 794.85 360.56 781.06 325.64 755.00 321.00
M 752.00 338.00 
C 775.71 342.87 770.10 382.28 745.98 378.02 C 720.29 376.38 726.14 332.89 752.00 338.00 Z"/>
</g>
<g fill="#F7FDFD" fill-opacity="1.00" stroke="None">
<path d="
M 519.00 333.00 
C 434.85 329.27 355.40 401.54 354.00 486.00 C 347.92 570.96 419.87 652.38 505.33 652.67 C 590.58 659.06 668.61 584.15 670.00 500.00 C 675.80 415.02 602.37 336.45 519.00 333.00
M 528.00 358.00 
C 598.34 366.06 656.36 437.00 645.07 509.07 C 639.88 580.79 567.73 639.17 496.00 629.00 C 424.53 621.76 368.73 550.51 378.00 479.00 C 384.59 407.25 454.56 348.50 528.00 358.00 Z"/>
</g>
<g fill="#F7FDFD" fill-opacity="1.00" stroke="None">
<path d="
M 752.00 338.00 
C 726.14 332.89 720.29 376.38 745.98 378.02 C 770.10 382.28 775.71 342.87 752.00 338.00 Z"/>
</g>
<g fill="#00367C" fill-opacity="1.00" stroke="None">
<path d="
M 528.00 358.00 
C 454.56 348.50 384.59 407.25 378.00 479.00 C 368.73 550.51 424.53 621.76 496.00 629.00 C 567.73 639.17 639.88 580.79 645.07 509.07 C 656.36 437.00 598.34 366.06 528.00 358.00
M 538.00 441.00 
C 500.97 433.61 463.75 426.55 427.00 418.00
C 448.64 392.55 481.33 376.86 513.74 379.26 C 521.99 399.80 530.85 420.08 538.00 441.00
M 573.00 490.00 
C 560.88 453.20 546.24 417.37 533.00 381.00
C 565.16 385.12 595.25 409.64 611.77 438.23 C 615.16 449.35 600.36 456.32 595.25 465.25 C 587.65 473.23 581.69 483.62 573.00 490.00
M 475.00 445.00 
C 452.75 473.41 426.46 501.81 403.00 529.00
C 393.59 497.52 396.45 460.26 415.00 433.00
C 435.17 436.28 454.73 441.96 475.00 445.00
M 546.00 548.00 
C 570.90 520.14 595.07 490.59 620.08 463.08 C 628.94 483.32 625.37 510.14 619.07 531.07 C 615.76 540.49 611.67 549.73 606.23 558.23 C 600.07 568.44 586.81 557.16 577.93 556.07 C 567.29 553.35 556.69 550.62 546.00 548.00
M 452.00 500.00 
C 460.52 535.62 475.73 569.35 484.00 605.00
C 453.70 598.29 424.25 576.03 412.01 546.99 C 424.35 531.17 436.66 513.00 452.00 500.00
M 588.00 577.00 
C 568.05 601.54 534.81 609.20 504.00 609.00
C 498.30 588.54 490.49 568.59 485.00 548.00
C 518.99 558.64 553.89 566.58 588.00 577.00 Z"/>
</g>
<g fill="#F7FDFD" fill-opacity="1.00" stroke="None">
<path d="
M 538.00 441.00 
C 530.85 420.08 521.99 399.80 513.74 379.26 C 481.33 376.86 448.64 392.55 427.00 418.00
C 463.75 426.55 500.97 433.61 538.00 441.00 Z"/>
</g>
<g fill="#F7FDFD" fill-opacity="1.00" stroke="None">
<path d="
M 573.00 490.00 
C 581.69 483.62 587.65 473.23 595.25 465.25 C 600.36 456.32 615.16 449.35 611.77 438.23 C 595.25 409.64 565.16 385.12 533.00 381.00
C 546.24 417.37 560.88 453.20 573.00 490.00 Z"/>
</g>
<g fill="#F7FDFD" fill-opacity="1.00" stroke="None">
<path d="
M 368.00 384.00 
C 312.00 384.00 256.00 384.00 200.00 384.00
C 197.34 395.22 202.04 402.33 214.00 399.00 C 232.67 399.00 251.33 399.00 270.00 399.00 C 291.13 400.60 324.38 384.39 329.67 415.33 C 332.32 431.61 311.65 438.85 314.33 455.33 C 300.42 544.13 344.55 640.67 429.00 675.00
C 421.00 679.00 407.22 676.51 397.01 677.99 C 387.75 677.97 383.44 667.80 375.75 664.25 C 315.53 616.67 287.74 540.96 297.00 465.00 C 295.78 455.91 304.32 442.66 293.70 437.30 C 285.42 432.97 282.65 423.50 282.00 415.00
C 255.16 415.52 229.00 413.11 202.08 414.08 C 195.44 421.03 202.24 431.06 212.00 427.00 C 220.61 427.50 229.79 425.89 238.00 428.00
C 242.09 440.82 231.50 445.59 221.00 443.00 C 210.47 442.59 194.87 440.09 200.08 455.92 C 208.53 460.71 221.73 456.66 232.00 458.00 C 241.79 458.16 237.20 442.52 246.75 438.75 C 261.41 425.81 287.06 439.45 283.99 458.99 C 283.71 479.50 257.10 485.67 243.07 473.93 C 232.53 471.81 220.95 473.58 210.00 473.00 C 197.45 466.48 195.18 492.00 207.00 489.00 C 216.51 489.20 226.08 490.54 233.75 496.25 C 256.04 515.30 246.88 549.45 257.68 574.32 C 263.84 584.15 254.09 591.70 244.00 589.00
C 238.44 571.88 234.97 554.11 232.98 536.02 C 233.79 517.92 220.66 501.20 201.00 505.00
C 198.65 517.10 202.60 527.05 212.23 533.77 C 218.88 542.60 218.91 554.09 221.67 564.33 C 228.86 604.79 248.47 641.52 268.00 677.00
C 257.11 677.91 245.23 678.44 241.92 666.08 C 223.08 633.20 212.23 597.00 202.00 561.00
C 198.09 594.04 199.81 630.92 201.22 664.78 C 206.18 701.36 249.01 695.49 277.00 695.00 C 347.21 697.16 418.38 695.46 489.00 696.00 C 517.08 696.24 558.51 701.62 566.00 667.00
C 492.83 687.81 408.11 662.93 364.75 598.25 C 319.58 536.27 322.72 444.92 368.00 384.00
M 276.00 490.00 
C 283.08 499.82 278.30 513.85 281.98 525.02 C 284.36 547.83 291.03 569.57 299.32 590.68 C 302.65 600.31 311.47 609.24 311.22 619.22 C 305.19 630.91 290.67 624.83 290.03 612.98 C 273.81 582.99 264.89 550.10 262.00 516.00 C 260.13 504.14 257.76 485.45 276.00 490.00
M 267.00 599.00 
C 275.37 616.64 282.83 635.91 294.00 652.00
C 298.18 625.78 340.06 628.39 341.33 654.67 C 342.94 666.19 359.78 668.15 362.00 678.00
C 351.33 678.58 339.80 678.12 330.92 674.94 C 303.50 688.58 275.09 665.44 266.08 639.92 C 261.65 632.06 258.21 623.79 254.23 615.77 C 246.91 606.61 256.42 596.41 267.00 599.00 Z"/>
</g>
<g fill="#00367C" fill-opacity="1.00" stroke="None">
<path d="
M 791.00 390.00 
C 780.78 397.90 770.11 408.06 777.67 421.33 C 783.66 450.70 784.18 482.40 782.00 513.00 C 774.31 529.11 802.58 539.03 803.02 521.02 C 807.52 476.99 805.14 430.80 791.00 390.00 Z"/>
</g>
<g fill="#F7FDFD" fill-opacity="1.00" stroke="None">
<path d="
M 310.00 408.00 
C 297.25 404.01 291.29 423.46 303.33 427.67 C 315.59 431.38 321.06 412.80 310.00 408.00 Z"/>
</g>
<g fill="#F7FDFD" fill-opacity="1.00" stroke="None">
<path d="
M 475.00 445.00 
C 454.73 441.96 435.17 436.28 415.00 433.00
C 396.45 460.26 393.59 497.52 403.00 529.00
C 426.46 501.81 452.75 473.41 475.00 445.00 Z"/>
</g>
<g fill="#F7FDFD" fill-opacity="1.00" stroke="None">
<path d="
M 264.00 447.00 
C 250.88 442.80 245.73 463.92 258.78 466.22 C 270.81 470.06 275.73 451.21 264.00 447.00 Z"/>
</g>
<g fill="#F7FDFD" fill-opacity="1.00" stroke="None">
<path d="
M 546.00 548.00 
C 556.69 550.62 567.29 553.35 577.93 556.07 C 586.81 557.16 600.07 568.44 606.23 558.23 C 611.67 549.73 615.76 540.49 619.07 531.07 C 625.37 510.14 628.94 483.32 620.08 463.08 C 595.07 490.59 570.90 520.14 546.00 548.00 Z"/>
</g>
<g fill="#00367C" fill-opacity="1.00" stroke="None">
<path d="
M 276.00 490.00 
C 257.76 485.45 260.13 504.14 262.00 516.00 C 264.89 550.10 273.81 582.99 290.03 612.98 C 290.67 624.83 305.19 630.91 311.22 619.22 C 311.47 609.24 302.65 600.31 299.32 590.68 C 291.03 569.57 284.36 547.83 281.98 525.02 C 278.30 513.85 283.08 499.82 276.00 490.00 Z"/>
</g>
<g fill="#F7FDFD" fill-opacity="1.00" stroke="None">
<path d="
M 452.00 500.00 
C 436.66 513.00 424.35 531.17 412.01 546.99 C 424.25 576.03 453.70 598.29 484.00 605.00
C 475.73 569.35 460.52 535.62 452.00 500.00 Z"/>
</g>
<g fill="#F7FDFD" fill-opacity="1.00" stroke="None">
<path d="
M 588.00 577.00 
C 553.89 566.58 518.99 558.64 485.00 548.00
C 490.49 568.59 498.30 588.54 504.00 609.00
C 534.81 609.20 568.05 601.54 588.00 577.00 Z"/>
</g>
<g fill="#00367C" fill-opacity="1.00" stroke="None">
<path d="
M 609.00 692.00 
C 641.01 676.09 669.39 649.61 689.70 619.70 C 694.30 609.52 709.45 596.89 700.69 586.31 C 686.34 575.68 683.70 598.31 675.92 605.92 C 663.57 626.24 645.75 644.09 626.70 658.70 C 613.51 664.64 612.67 680.09 609.00 692.00 Z"/>
</g>
<g fill="#00367C" fill-opacity="1.00" stroke="None">
<path d="
M 267.00 599.00 
C 256.42 596.41 246.91 606.61 254.23 615.77 C 258.21 623.79 261.65 632.06 266.08 639.92 C 275.09 665.44 303.50 688.58 330.92 674.94 C 339.80 678.12 351.33 678.58 362.00 678.00
C 359.78 668.15 342.94 666.19 341.33 654.67 C 340.06 628.39 298.18 625.78 294.00 652.00
C 282.83 635.91 275.37 616.64 267.00 599.00
M 318.00 647.00 
C 330.03 647.92 329.51 667.78 316.78 667.78 C 304.16 667.01 305.94 646.48 318.00 647.00 Z"/>
</g>
<g fill="#F7FDFD" fill-opacity="1.00" stroke="None">
<path d="
M 318.00 647.00 
C 305.94 646.48 304.16 667.01 316.78 667.78 C 329.51 667.78 330.03 647.92 318.00 647.00 Z"/>
</g>
<g fill="#F7FDFD" fill-opacity="1.00" stroke="None">
<path d="
M 706.00 658.00 
C 693.77 654.42 686.66 672.75 698.78 677.22 C 711.55 683.16 717.40 662.93 706.00 658.00 Z"/>
</g>
<g fill="#F7FDFD" fill-opacity="1.00" stroke="None">
<path d="
M 468.00 756.00 
C 455.36 752.68 451.20 773.11 463.00 776.00 C 475.91 778.92 479.21 759.33 468.00 756.00 Z"/>
</g>
<g fill="#F7FDFD" fill-opacity="1.00" stroke="None">
<path d="
M 394.00 819.00 
C 392.43 794.41 366.25 783.75 350.70 768.30 C 341.44 757.16 327.91 756.82 314.00 758.00
C 337.32 781.80 365.91 801.69 394.00 819.00 Z"/>
</g>
<g fill="#F7FDFD" fill-opacity="1.00" stroke="None">
<path d="
M 433.00 844.00 
C 433.73 822.09 428.96 800.97 416.75 783.25 C 405.81 765.43 388.00 752.88 366.00 758.00
C 385.94 776.29 414.69 794.51 413.01 825.99 C 412.72 836.92 425.77 839.19 433.00 844.00 Z"/>
</g>
</svg>